<svg width="519" height="141" viewBox="0 0 519 141" fill="none" xmlns="http://www.w3.org/2000/svg">
<path d="M94.5222 137.298V140.056H83.5254V123.794H86.9344V137.308L94.5222 137.298Z" fill="#BAA97A"/>
<path d="M100.341 126.533V130.251H107.459V133H100.341V137.298H108.498V140.056H96.9316V123.794H108.088V126.543L100.341 126.533Z" fill="#BAA97A"/>
<path d="M122.724 140.056L121.254 136.368H114.716L113.317 140.056H109.678L116.276 123.794H119.655L126.453 140.056H122.724ZM117.206 129.941L115.806 133.609H120.205L118.785 129.941C118.595 129.464 118.431 128.977 118.295 128.482C118.175 128.085 118.078 127.681 118.005 127.273H117.915C117.768 128.184 117.53 129.078 117.206 129.941Z" fill="#BAA97A"/>
<path d="M142.479 132.06C142.597 134.176 141.94 136.262 140.63 137.928C139.39 139.347 137.481 140.066 134.901 140.066H128.283V123.805H134.931C139.97 123.791 142.486 126.543 142.479 132.06ZM138.95 131.96C138.991 130.877 138.828 129.795 138.47 128.772C138.207 128.047 137.688 127.442 137.011 127.073C136.187 126.695 135.287 126.518 134.381 126.553H131.692V137.318H134.431C135.349 137.361 136.264 137.186 137.101 136.808C137.766 136.457 138.271 135.862 138.51 135.149C138.842 134.113 138.991 133.027 138.95 131.94V131.96Z" fill="#BAA97A"/>
<path d="M148.686 126.533V130.251H155.804V133H148.686V137.298H156.844V140.056H145.277V123.794H156.444V126.543L148.686 126.533Z" fill="#BAA97A"/>
<path d="M172.719 128.342C172.763 129.363 172.44 130.366 171.81 131.171C171.073 131.991 170.097 132.561 169.021 132.8V132.85C169.311 132.948 169.582 133.097 169.82 133.29C170.108 133.537 170.361 133.823 170.57 134.139C170.901 134.632 171.198 135.146 171.46 135.679L173.689 140.047H169.95L168.331 136.798C167.939 135.948 167.46 135.14 166.901 134.389C166.685 134.122 166.428 133.889 166.141 133.7C165.851 133.523 165.528 133.407 165.192 133.36C164.679 133.282 164.161 133.249 163.642 133.26H163.192V140.056H159.783V123.794H166.781C168.334 123.695 169.876 124.109 171.17 124.974C171.681 125.369 172.089 125.881 172.359 126.467C172.629 127.054 172.752 127.697 172.719 128.342ZM169.2 128.542C169.224 128.25 169.175 127.957 169.059 127.688C168.942 127.42 168.76 127.184 168.531 127.003C167.909 126.637 167.191 126.469 166.471 126.523H163.192V130.661H166.091C166.9 130.713 167.708 130.547 168.431 130.181C168.694 130.002 168.903 129.755 169.037 129.466C169.171 129.178 169.224 128.858 169.19 128.542H169.2Z" fill="#BAA97A"/>
<path d="M180.857 132.001C180.82 130.446 181.163 128.905 181.857 127.513C182.501 126.252 183.502 125.209 184.736 124.515C186.092 123.828 187.59 123.47 189.11 123.47C190.63 123.47 192.128 123.828 193.484 124.515C194.724 125.203 195.731 126.248 196.373 127.513C197.037 128.884 197.382 130.388 197.382 131.911C197.382 133.434 197.037 134.938 196.373 136.309C195.735 137.567 194.741 138.61 193.514 139.307C192.171 140.036 190.662 140.401 189.135 140.367C187.603 140.403 186.087 140.041 184.736 139.317C183.501 138.644 182.493 137.622 181.837 136.378C181.15 135.024 180.814 133.519 180.857 132.001ZM189.115 126.323C188.221 126.301 187.342 126.552 186.596 127.043C185.866 127.536 185.297 128.231 184.956 129.042C184.567 129.954 184.376 130.939 184.396 131.931C184.376 132.925 184.563 133.912 184.946 134.829C185.294 135.65 185.876 136.35 186.619 136.842C187.362 137.334 188.234 137.596 189.125 137.596C190.016 137.596 190.888 137.334 191.631 136.842C192.374 136.35 192.956 135.65 193.304 134.829C193.696 133.9 193.887 132.899 193.864 131.891C193.884 130.909 193.693 129.934 193.304 129.032C192.973 128.218 192.405 127.522 191.674 127.033C190.913 126.542 190.02 126.294 189.115 126.323Z" fill="#BAA97A"/>
<path d="M203.571 126.533V130.531H210.679V133.27H203.571V140.056H200.182V123.794H211.558V126.543L203.571 126.533Z" fill="#BAA97A"/>
<path d="M227.344 126.323C226.496 126.301 225.662 126.55 224.965 127.033C224.284 127.538 223.769 128.234 223.485 129.032C223.138 129.945 222.969 130.915 222.985 131.891C222.962 132.914 223.135 133.932 223.495 134.889C223.777 135.689 224.292 136.385 224.975 136.888C225.652 137.366 226.466 137.611 227.294 137.588C227.903 137.59 228.505 137.453 229.054 137.188C229.596 136.917 230.069 136.524 230.433 136.039C230.827 135.517 231.112 134.923 231.273 134.289L234.662 135.059C234.423 136.087 233.955 137.047 233.292 137.868C232.628 138.681 231.777 139.322 230.813 139.737C229.58 140.232 228.254 140.457 226.926 140.397C225.598 140.336 224.299 139.992 223.115 139.387C221.931 138.702 220.983 137.674 220.396 136.438C219.744 135.002 219.426 133.437 219.466 131.86C219.442 130.332 219.785 128.821 220.466 127.453C221.077 126.242 222.039 125.242 223.225 124.584C224.518 123.892 225.968 123.547 227.434 123.585C229.041 123.517 230.631 123.938 231.993 124.794C233.225 125.645 234.115 126.906 234.502 128.352L231.123 129.132C230.943 128.284 230.46 127.531 229.765 127.014C229.069 126.497 228.208 126.251 227.344 126.323Z" fill="#BAA97A"/>
<path d="M236.622 132.001C236.585 130.446 236.928 128.906 237.622 127.513C238.27 126.252 239.274 125.209 240.511 124.515C241.851 123.791 243.357 123.429 244.879 123.465C246.4 123.419 247.908 123.763 249.258 124.464C250.497 125.156 251.502 126.2 252.147 127.463C252.84 128.838 253.183 130.362 253.147 131.901C253.178 133.414 252.834 134.911 252.147 136.259C251.51 137.518 250.515 138.561 249.288 139.258C247.946 139.986 246.436 140.351 244.909 140.317C243.377 140.353 241.862 139.991 240.511 139.267C239.278 138.592 238.27 137.57 237.612 136.329C236.93 134.99 236.59 133.503 236.622 132.001ZM244.889 126.323C243.993 126.3 243.11 126.551 242.36 127.043C241.631 127.536 241.061 128.231 240.721 129.042C239.981 130.901 239.981 132.971 240.721 134.83C241.067 135.653 241.649 136.356 242.393 136.85C243.137 137.344 244.011 137.608 244.904 137.608C245.798 137.608 246.672 137.344 247.416 136.85C248.16 136.356 248.742 135.653 249.088 134.83C249.476 133.899 249.666 132.899 249.648 131.891C249.664 130.909 249.473 129.936 249.088 129.033C248.747 128.211 248.163 127.514 247.414 127.033C246.666 126.553 245.788 126.312 244.899 126.343L244.889 126.323Z" fill="#BAA97A"/>
<path d="M266.162 123.785H269.341V140.056H265.912L259.164 129.442V140.056H255.965V123.794H259.284L266.202 134.649L266.162 123.785Z" fill="#BAA97A"/>
<path d="M278.449 126.213C277.816 126.192 277.189 126.337 276.629 126.633C276.408 126.742 276.222 126.912 276.093 127.123C275.964 127.333 275.897 127.576 275.9 127.822C275.896 127.983 275.924 128.142 275.982 128.291C276.041 128.441 276.128 128.577 276.239 128.692C276.565 128.995 276.954 129.221 277.379 129.352C278.131 129.612 278.899 129.822 279.678 129.981C280.895 130.222 282.072 130.629 283.177 131.191C283.913 131.566 284.522 132.15 284.927 132.87C285.289 133.631 285.464 134.467 285.437 135.309C285.47 136.324 285.145 137.319 284.517 138.118C283.878 138.884 283.041 139.462 282.098 139.787C281.038 140.156 279.921 140.338 278.799 140.327C277.13 140.404 275.486 139.907 274.14 138.917C272.927 137.915 272.15 136.482 271.971 134.919L275.38 134.519C275.491 135.406 275.892 136.232 276.519 136.868C277.188 137.405 278.033 137.672 278.889 137.618C279.445 137.629 280 137.544 280.528 137.368C280.95 137.237 281.33 136.995 281.628 136.668C281.891 136.37 282.033 135.986 282.028 135.589C282.048 135.198 281.947 134.81 281.738 134.479C281.441 134.142 281.057 133.893 280.628 133.76C279.786 133.457 278.925 133.213 278.049 133.03C276.907 132.8 275.806 132.402 274.78 131.851C274.085 131.514 273.505 130.979 273.112 130.314C272.719 129.649 272.53 128.884 272.571 128.112C272.56 127.272 272.807 126.448 273.28 125.754C273.805 125.027 274.527 124.465 275.36 124.134C276.397 123.727 277.505 123.53 278.619 123.555C280.158 123.473 281.682 123.898 282.957 124.764C284.061 125.619 284.78 126.878 284.957 128.263L281.548 128.622C281.529 128.274 281.439 127.934 281.282 127.623C281.126 127.311 280.906 127.036 280.638 126.813C279.991 126.386 279.224 126.175 278.449 126.213Z" fill="#BAA97A"/>
<path d="M294.775 126.533V140.056H291.366V126.543H286.457V123.794H299.673V126.543L294.775 126.533Z" fill="#BAA97A"/>
<path d="M314.989 128.342C315.031 129.361 314.712 130.363 314.089 131.171C313.346 131.989 312.369 132.559 311.29 132.8V132.85C311.58 132.948 311.851 133.097 312.089 133.29C312.378 133.537 312.63 133.823 312.839 134.139C313.174 134.629 313.472 135.144 313.729 135.679L315.958 140.047H312.219L310.6 136.798C310.209 135.948 309.73 135.14 309.17 134.389C308.954 134.122 308.698 133.889 308.411 133.7C308.106 133.516 307.765 133.4 307.411 133.36C306.898 133.282 306.38 133.249 305.861 133.26H305.381V140.056H301.982V123.794H308.98C310.533 123.695 312.076 124.109 313.369 124.974C313.893 125.361 314.314 125.87 314.597 126.457C314.879 127.044 315.014 127.691 314.989 128.342ZM311.47 128.542C311.496 128.25 311.449 127.956 311.332 127.687C311.214 127.418 311.032 127.183 310.8 127.003C310.178 126.637 309.46 126.469 308.74 126.523H305.431V130.661H308.341C309.149 130.71 309.956 130.545 310.68 130.181C310.948 130.005 311.163 129.759 311.302 129.471C311.441 129.182 311.499 128.861 311.47 128.542Z" fill="#BAA97A"/>
<path d="M324.576 137.508C325.267 137.547 325.956 137.405 326.575 137.098C327.061 136.811 327.419 136.35 327.575 135.809C327.784 135.03 327.878 134.225 327.855 133.42V123.785H331.254V133.35C331.306 134.71 331.095 136.067 330.634 137.348C330.251 138.327 329.517 139.129 328.575 139.597C327.348 140.136 326.014 140.385 324.676 140.326C323.262 140.389 321.853 140.126 320.557 139.557C319.579 139.089 318.807 138.278 318.388 137.278C317.914 136.031 317.693 134.703 317.738 133.37V123.785H321.147V133.47C321.12 134.261 321.239 135.051 321.497 135.799C321.703 136.348 322.096 136.808 322.607 137.098C323.22 137.393 323.896 137.534 324.576 137.508Z" fill="#BAA97A"/>
<path d="M341.821 126.323C340.973 126.301 340.139 126.55 339.442 127.033C338.764 127.541 338.25 128.236 337.962 129.032C337.619 129.946 337.453 130.916 337.472 131.891C337.446 132.913 337.615 133.931 337.972 134.889C338.257 135.687 338.772 136.382 339.452 136.888C340.132 137.367 340.949 137.612 341.781 137.588C342.387 137.589 342.985 137.452 343.53 137.188C344.073 136.917 344.546 136.524 344.91 136.039C345.311 135.522 345.597 134.926 345.75 134.29L349.139 135.059C348.9 136.087 348.432 137.047 347.769 137.868C347.105 138.681 346.254 139.322 345.29 139.737C344.056 140.232 342.731 140.457 341.403 140.397C340.075 140.337 338.776 139.992 337.592 139.387C336.411 138.702 335.466 137.673 334.883 136.438C334.222 135.005 333.901 133.438 333.943 131.861C333.919 130.333 334.262 128.821 334.943 127.453C335.557 126.244 336.518 125.245 337.702 124.584C338.995 123.893 340.445 123.549 341.911 123.585C343.521 123.519 345.113 123.94 346.48 124.794C347.706 125.649 348.591 126.909 348.979 128.353L345.61 129.132C345.428 128.283 344.943 127.53 344.246 127.013C343.548 126.496 342.686 126.251 341.821 126.323Z" fill="#BAA97A"/>
<path d="M358.686 126.533V140.056H355.278V126.543H350.379V123.794H363.585V126.543L358.686 126.533Z" fill="#BAA97A"/>
<path d="M365.943 140.056V123.794H369.352V140.056H365.943Z" fill="#BAA97A"/>
<path d="M372.132 132.001C372.095 130.446 372.438 128.906 373.131 127.513C373.779 126.252 374.784 125.209 376.021 124.515C377.361 123.792 378.867 123.43 380.389 123.465C381.91 123.419 383.418 123.763 384.768 124.464C386.007 125.156 387.012 126.2 387.657 127.463C388.328 128.832 388.677 130.336 388.677 131.861C388.677 133.385 388.328 134.89 387.657 136.259C387.023 137.52 386.027 138.564 384.798 139.258C383.456 139.986 381.946 140.351 380.419 140.317C378.887 140.352 377.372 139.99 376.021 139.267C374.788 138.592 373.78 137.57 373.121 136.329C372.439 134.99 372.099 133.503 372.132 132.001ZM380.399 126.323C379.514 126.298 378.642 126.542 377.899 127.024C377.156 127.506 376.577 128.203 376.24 129.022C375.848 129.934 375.653 130.919 375.671 131.911C375.655 132.905 375.842 133.891 376.22 134.81C376.567 135.633 377.149 136.336 377.893 136.83C378.637 137.324 379.511 137.588 380.404 137.588C381.298 137.588 382.171 137.324 382.916 136.83C383.66 136.336 384.242 135.633 384.588 134.81C384.975 133.879 385.166 132.879 385.148 131.871C385.164 130.889 384.973 129.916 384.588 129.013C384.247 128.191 383.663 127.494 382.914 127.013C382.166 126.533 381.288 126.292 380.399 126.323Z" fill="#BAA97A"/>
<path d="M401.723 123.785H404.902V140.056H401.473L394.665 129.452V140.056H391.486V123.794H394.805L401.723 134.649V123.785Z" fill="#BAA97A"/>
<path d="M94.5222 137.298V140.056H83.5254V123.794H86.9344V137.308L94.5222 137.298Z" fill="url(#paint0_linear_311_1596)"/>
<path d="M100.341 126.533V130.251H107.459V133H100.341V137.298H108.498V140.056H96.9316V123.794H108.088V126.543L100.341 126.533Z" fill="url(#paint1_linear_311_1596)"/>
<path d="M122.724 140.056L121.254 136.368H114.716L113.317 140.056H109.678L116.276 123.794H119.655L126.453 140.056H122.724ZM117.206 129.941L115.806 133.609H120.205L118.785 129.941C118.595 129.464 118.431 128.977 118.295 128.482C118.175 128.085 118.078 127.681 118.005 127.273H117.915C117.768 128.184 117.53 129.078 117.206 129.941Z" fill="url(#paint2_linear_311_1596)"/>
<path d="M142.479 132.06C142.597 134.176 141.94 136.262 140.63 137.928C139.39 139.347 137.481 140.066 134.901 140.066H128.283V123.805H134.931C139.97 123.791 142.486 126.543 142.479 132.06ZM138.95 131.96C138.991 130.877 138.828 129.795 138.47 128.772C138.207 128.047 137.688 127.442 137.011 127.073C136.187 126.695 135.287 126.518 134.381 126.553H131.692V137.318H134.431C135.349 137.361 136.264 137.186 137.101 136.808C137.766 136.457 138.271 135.862 138.51 135.149C138.842 134.113 138.991 133.027 138.95 131.94V131.96Z" fill="url(#paint3_linear_311_1596)"/>
<path d="M148.686 126.533V130.251H155.804V133H148.686V137.298H156.844V140.056H145.277V123.794H156.444V126.543L148.686 126.533Z" fill="url(#paint4_linear_311_1596)"/>
<path d="M172.719 128.342C172.763 129.363 172.44 130.366 171.81 131.171C171.073 131.991 170.097 132.561 169.021 132.8V132.85C169.311 132.948 169.582 133.097 169.82 133.29C170.108 133.537 170.361 133.823 170.57 134.139C170.901 134.632 171.198 135.146 171.46 135.679L173.689 140.047H169.95L168.331 136.798C167.939 135.948 167.46 135.14 166.901 134.389C166.685 134.122 166.428 133.889 166.141 133.7C165.851 133.523 165.528 133.407 165.192 133.36C164.679 133.282 164.161 133.249 163.642 133.26H163.192V140.056H159.783V123.794H166.781C168.334 123.695 169.876 124.109 171.17 124.974C171.681 125.369 172.089 125.881 172.359 126.467C172.629 127.054 172.752 127.697 172.719 128.342ZM169.2 128.542C169.224 128.25 169.175 127.957 169.059 127.688C168.942 127.42 168.76 127.184 168.531 127.003C167.909 126.637 167.191 126.469 166.471 126.523H163.192V130.661H166.091C166.9 130.713 167.708 130.547 168.431 130.181C168.694 130.002 168.903 129.755 169.037 129.466C169.171 129.178 169.224 128.858 169.19 128.542H169.2Z" fill="url(#paint5_linear_311_1596)"/>
<path d="M180.857 132.001C180.82 130.446 181.163 128.905 181.857 127.513C182.501 126.252 183.502 125.209 184.736 124.515C186.092 123.828 187.59 123.47 189.11 123.47C190.63 123.47 192.128 123.828 193.484 124.515C194.724 125.203 195.731 126.248 196.373 127.513C197.037 128.884 197.382 130.388 197.382 131.911C197.382 133.434 197.037 134.938 196.373 136.309C195.735 137.567 194.741 138.61 193.514 139.307C192.171 140.036 190.662 140.401 189.135 140.367C187.603 140.403 186.087 140.041 184.736 139.317C183.501 138.644 182.493 137.622 181.837 136.378C181.15 135.024 180.814 133.519 180.857 132.001ZM189.115 126.323C188.221 126.301 187.342 126.552 186.596 127.043C185.866 127.536 185.297 128.231 184.956 129.042C184.567 129.954 184.376 130.939 184.396 131.931C184.376 132.925 184.563 133.912 184.946 134.829C185.294 135.65 185.876 136.35 186.619 136.842C187.362 137.334 188.234 137.596 189.125 137.596C190.016 137.596 190.888 137.334 191.631 136.842C192.374 136.35 192.956 135.65 193.304 134.829C193.696 133.9 193.887 132.899 193.864 131.891C193.884 130.909 193.693 129.934 193.304 129.032C192.973 128.218 192.405 127.522 191.674 127.033C190.913 126.542 190.02 126.294 189.115 126.323Z" fill="url(#paint6_linear_311_1596)"/>
<path d="M203.571 126.533V130.531H210.679V133.27H203.571V140.056H200.182V123.794H211.558V126.543L203.571 126.533Z" fill="url(#paint7_linear_311_1596)"/>
<path d="M227.344 126.323C226.496 126.301 225.662 126.55 224.965 127.033C224.284 127.538 223.769 128.234 223.485 129.032C223.138 129.945 222.969 130.915 222.985 131.891C222.962 132.914 223.135 133.932 223.495 134.889C223.777 135.689 224.292 136.385 224.975 136.888C225.652 137.366 226.466 137.611 227.294 137.588C227.903 137.59 228.505 137.453 229.054 137.188C229.596 136.917 230.069 136.524 230.433 136.039C230.827 135.517 231.112 134.923 231.273 134.289L234.662 135.059C234.423 136.087 233.955 137.047 233.292 137.868C232.628 138.681 231.777 139.322 230.813 139.737C229.58 140.232 228.254 140.457 226.926 140.397C225.598 140.336 224.299 139.992 223.115 139.387C221.931 138.702 220.983 137.674 220.396 136.438C219.744 135.002 219.426 133.437 219.466 131.86C219.442 130.332 219.785 128.821 220.466 127.453C221.077 126.242 222.039 125.242 223.225 124.584C224.518 123.892 225.968 123.547 227.434 123.585C229.041 123.517 230.631 123.938 231.993 124.794C233.225 125.645 234.115 126.906 234.502 128.352L231.123 129.132C230.943 128.284 230.46 127.531 229.765 127.014C229.069 126.497 228.208 126.251 227.344 126.323Z" fill="url(#paint8_linear_311_1596)"/>
<path d="M236.622 132.001C236.585 130.446 236.928 128.906 237.622 127.513C238.27 126.252 239.274 125.209 240.511 124.515C241.851 123.791 243.357 123.429 244.879 123.465C246.4 123.419 247.908 123.763 249.258 124.464C250.497 125.156 251.502 126.2 252.147 127.463C252.84 128.838 253.183 130.362 253.147 131.901C253.178 133.414 252.834 134.911 252.147 136.259C251.51 137.518 250.515 138.561 249.288 139.258C247.946 139.986 246.436 140.351 244.909 140.317C243.377 140.353 241.862 139.991 240.511 139.267C239.278 138.592 238.27 137.57 237.612 136.329C236.93 134.99 236.59 133.503 236.622 132.001ZM244.889 126.323C243.993 126.3 243.11 126.551 242.36 127.043C241.631 127.536 241.061 128.231 240.721 129.042C239.981 130.901 239.981 132.971 240.721 134.83C241.067 135.653 241.649 136.356 242.393 136.85C243.137 137.344 244.011 137.608 244.904 137.608C245.798 137.608 246.672 137.344 247.416 136.85C248.16 136.356 248.742 135.653 249.088 134.83C249.476 133.899 249.666 132.899 249.648 131.891C249.664 130.909 249.473 129.936 249.088 129.033C248.747 128.211 248.163 127.514 247.414 127.033C246.666 126.553 245.788 126.312 244.899 126.343L244.889 126.323Z" fill="url(#paint9_linear_311_1596)"/>
<path d="M266.162 123.785H269.341V140.056H265.912L259.164 129.442V140.056H255.965V123.794H259.284L266.202 134.649L266.162 123.785Z" fill="url(#paint10_linear_311_1596)"/>
<path d="M278.449 126.213C277.816 126.192 277.189 126.337 276.629 126.633C276.408 126.742 276.222 126.912 276.093 127.123C275.964 127.333 275.897 127.576 275.9 127.822C275.896 127.983 275.924 128.142 275.982 128.291C276.041 128.441 276.128 128.577 276.239 128.692C276.565 128.995 276.954 129.221 277.379 129.352C278.131 129.612 278.899 129.822 279.678 129.981C280.895 130.222 282.072 130.629 283.177 131.191C283.913 131.566 284.522 132.15 284.927 132.87C285.289 133.631 285.464 134.467 285.437 135.309C285.47 136.324 285.145 137.319 284.517 138.118C283.878 138.884 283.041 139.462 282.098 139.787C281.038 140.156 279.921 140.338 278.799 140.327C277.13 140.404 275.486 139.907 274.14 138.917C272.927 137.915 272.15 136.482 271.971 134.919L275.38 134.519C275.491 135.406 275.892 136.232 276.519 136.868C277.188 137.405 278.033 137.672 278.889 137.618C279.445 137.629 280 137.544 280.528 137.368C280.95 137.237 281.33 136.995 281.628 136.668C281.891 136.37 282.033 135.986 282.028 135.589C282.048 135.198 281.947 134.81 281.738 134.479C281.441 134.142 281.057 133.893 280.628 133.76C279.786 133.457 278.925 133.213 278.049 133.03C276.907 132.8 275.806 132.402 274.78 131.851C274.085 131.514 273.505 130.979 273.112 130.314C272.719 129.649 272.53 128.884 272.571 128.112C272.56 127.272 272.807 126.448 273.28 125.754C273.805 125.027 274.527 124.465 275.36 124.134C276.397 123.727 277.505 123.53 278.619 123.555C280.158 123.473 281.682 123.898 282.957 124.764C284.061 125.619 284.78 126.878 284.957 128.263L281.548 128.622C281.529 128.274 281.439 127.934 281.282 127.623C281.126 127.311 280.906 127.036 280.638 126.813C279.991 126.386 279.224 126.175 278.449 126.213Z" fill="url(#paint11_linear_311_1596)"/>
<path d="M294.775 126.533V140.056H291.366V126.543H286.457V123.794H299.673V126.543L294.775 126.533Z" fill="url(#paint12_linear_311_1596)"/>
<path d="M314.989 128.342C315.031 129.361 314.712 130.363 314.089 131.171C313.346 131.989 312.369 132.559 311.29 132.8V132.85C311.58 132.948 311.851 133.097 312.089 133.29C312.378 133.537 312.63 133.823 312.839 134.139C313.174 134.629 313.472 135.144 313.729 135.679L315.958 140.047H312.219L310.6 136.798C310.209 135.948 309.73 135.14 309.17 134.389C308.954 134.122 308.698 133.889 308.411 133.7C308.106 133.516 307.765 133.4 307.411 133.36C306.898 133.282 306.38 133.249 305.861 133.26H305.381V140.056H301.982V123.794H308.98C310.533 123.695 312.076 124.109 313.369 124.974C313.893 125.361 314.314 125.87 314.597 126.457C314.879 127.044 315.014 127.691 314.989 128.342ZM311.47 128.542C311.496 128.25 311.449 127.956 311.332 127.687C311.214 127.418 311.032 127.183 310.8 127.003C310.178 126.637 309.46 126.469 308.74 126.523H305.431V130.661H308.341C309.149 130.71 309.956 130.545 310.68 130.181C310.948 130.005 311.163 129.759 311.302 129.471C311.441 129.182 311.499 128.861 311.47 128.542Z" fill="url(#paint13_linear_311_1596)"/>
<path d="M324.576 137.508C325.267 137.547 325.956 137.405 326.575 137.098C327.061 136.811 327.419 136.35 327.575 135.809C327.784 135.03 327.878 134.225 327.855 133.42V123.785H331.254V133.35C331.306 134.71 331.095 136.067 330.634 137.348C330.251 138.327 329.517 139.129 328.575 139.597C327.348 140.136 326.014 140.385 324.676 140.326C323.262 140.389 321.853 140.126 320.557 139.557C319.579 139.089 318.807 138.278 318.388 137.278C317.914 136.031 317.693 134.703 317.738 133.37V123.785H321.147V133.47C321.12 134.261 321.239 135.051 321.497 135.799C321.703 136.348 322.096 136.808 322.607 137.098C323.22 137.393 323.896 137.534 324.576 137.508Z" fill="url(#paint14_linear_311_1596)"/>
<path d="M341.821 126.323C340.973 126.301 340.139 126.55 339.442 127.033C338.764 127.541 338.25 128.236 337.962 129.032C337.619 129.946 337.453 130.916 337.472 131.891C337.446 132.913 337.615 133.931 337.972 134.889C338.257 135.687 338.772 136.382 339.452 136.888C340.132 137.367 340.949 137.612 341.781 137.588C342.387 137.589 342.985 137.452 343.53 137.188C344.073 136.917 344.546 136.524 344.91 136.039C345.311 135.522 345.597 134.926 345.75 134.29L349.139 135.059C348.9 136.087 348.432 137.047 347.769 137.868C347.105 138.681 346.254 139.322 345.29 139.737C344.056 140.232 342.731 140.457 341.403 140.397C340.075 140.337 338.776 139.992 337.592 139.387C336.411 138.702 335.466 137.673 334.883 136.438C334.222 135.005 333.901 133.438 333.943 131.861C333.919 130.333 334.262 128.821 334.943 127.453C335.557 126.244 336.518 125.245 337.702 124.584C338.995 123.893 340.445 123.549 341.911 123.585C343.521 123.519 345.113 123.94 346.48 124.794C347.706 125.649 348.591 126.909 348.979 128.353L345.61 129.132C345.428 128.283 344.943 127.53 344.246 127.013C343.548 126.496 342.686 126.251 341.821 126.323Z" fill="url(#paint15_linear_311_1596)"/>
<path d="M358.686 126.533V140.056H355.278V126.543H350.379V123.794H363.585V126.543L358.686 126.533Z" fill="url(#paint16_linear_311_1596)"/>
<path d="M365.943 140.056V123.794H369.352V140.056H365.943Z" fill="url(#paint17_linear_311_1596)"/>
<path d="M372.132 132.001C372.095 130.446 372.438 128.906 373.131 127.513C373.779 126.252 374.784 125.209 376.021 124.515C377.361 123.792 378.867 123.43 380.389 123.465C381.91 123.419 383.418 123.763 384.768 124.464C386.007 125.156 387.012 126.2 387.657 127.463C388.328 128.832 388.677 130.336 388.677 131.861C388.677 133.385 388.328 134.89 387.657 136.259C387.023 137.52 386.027 138.564 384.798 139.258C383.456 139.986 381.946 140.351 380.419 140.317C378.887 140.352 377.372 139.99 376.021 139.267C374.788 138.592 373.78 137.57 373.121 136.329C372.439 134.99 372.099 133.503 372.132 132.001ZM380.399 126.323C379.514 126.298 378.642 126.542 377.899 127.024C377.156 127.506 376.577 128.203 376.24 129.022C375.848 129.934 375.653 130.919 375.671 131.911C375.655 132.905 375.842 133.891 376.22 134.81C376.567 135.633 377.149 136.336 377.893 136.83C378.637 137.324 379.511 137.588 380.404 137.588C381.298 137.588 382.171 137.324 382.916 136.83C383.66 136.336 384.242 135.633 384.588 134.81C384.975 133.879 385.166 132.879 385.148 131.871C385.164 130.889 384.973 129.916 384.588 129.013C384.247 128.191 383.663 127.494 382.914 127.013C382.166 126.533 381.288 126.292 380.399 126.323Z" fill="url(#paint18_linear_311_1596)"/>
<path d="M401.723 123.785H404.902V140.056H401.473L394.665 129.452V140.056H391.486V123.794H394.805L401.723 134.649V123.785Z" fill="url(#paint19_linear_311_1596)"/>
<path d="M508.731 5.73242C510.313 5.73242 511.86 6.20128 513.175 7.0799C514.49 7.95852 515.515 9.20738 516.12 10.6685C516.726 12.1296 516.884 13.7377 516.575 15.2888C516.267 16.8398 515.505 18.2647 514.387 19.3829C513.268 20.5012 511.843 21.2623 510.292 21.5708C508.74 21.8794 507.132 21.7212 505.671 21.116C504.21 20.5108 502.96 19.4861 502.082 18.1711C501.203 16.8562 500.734 15.31 500.734 13.7285C500.734 11.6078 501.576 9.57408 503.076 8.07453C504.576 6.57497 506.61 5.73242 508.731 5.73242ZM508.731 3.7334C506.754 3.7334 504.821 4.31984 503.177 5.41812C501.533 6.51639 500.252 8.07735 499.495 9.90371C498.739 11.7301 498.541 13.7398 498.926 15.6787C499.312 17.6176 500.264 19.3985 501.662 20.7963C503.061 22.1942 504.842 23.1461 506.781 23.5318C508.72 23.9174 510.73 23.7192 512.557 22.9627C514.384 22.2062 515.945 20.9251 517.044 19.2814C518.142 17.6377 518.729 15.7053 518.729 13.7285C518.729 11.0776 517.675 8.5356 515.8 6.66116C513.926 4.78672 511.383 3.7334 508.731 3.7334Z" fill="url(#paint20_linear_311_1596)"/>
<path d="M503.994 19.1157V8.43095H508.993C509.705 8.40426 510.417 8.49177 511.102 8.69059C511.598 8.87904 512.014 9.23183 512.282 9.6901C512.594 10.2154 512.75 10.8188 512.732 11.4295C512.742 11.959 512.625 12.4832 512.392 12.9585C512.152 13.3871 511.808 13.7484 511.392 14.0083C511.084 14.2024 510.746 14.3442 510.392 14.428C510.667 14.5181 510.927 14.6497 511.162 14.818C511.343 14.9896 511.503 15.1805 511.642 15.3875C511.803 15.5935 511.943 15.8146 512.062 16.0473L513.501 19.1454H510.092L508.503 15.877C508.382 15.569 508.198 15.2899 507.963 15.0576C507.757 14.8913 507.498 14.8028 507.233 14.8077H506.973V19.1157H503.994ZM506.993 12.7589H508.253C508.517 12.7349 508.778 12.6848 509.033 12.6091C509.233 12.5676 509.409 12.4491 509.523 12.2792C509.646 12.0961 509.712 11.8802 509.712 11.6593C509.725 11.5122 509.704 11.3642 509.652 11.226C509.6 11.0877 509.519 10.9628 509.413 10.8599C509.085 10.6439 508.693 10.5485 508.303 10.59H506.993V12.7589Z" fill="url(#paint21_linear_311_1596)"/>
<path d="M508.731 5.73242C510.313 5.73242 511.86 6.20128 513.175 7.0799C514.49 7.95852 515.515 9.20738 516.12 10.6685C516.726 12.1296 516.884 13.7377 516.575 15.2888C516.267 16.8398 515.505 18.2647 514.387 19.3829C513.268 20.5012 511.843 21.2623 510.292 21.5708C508.74 21.8794 507.132 21.7212 505.671 21.116C504.21 20.5108 502.96 19.4861 502.082 18.1711C501.203 16.8562 500.734 15.31 500.734 13.7285C500.734 11.6078 501.576 9.57408 503.076 8.07453C504.576 6.57497 506.61 5.73242 508.731 5.73242ZM508.731 3.7334C506.754 3.7334 504.821 4.31984 503.177 5.41812C501.533 6.51639 500.252 8.07735 499.495 9.90371C498.739 11.7301 498.541 13.7398 498.926 15.6787C499.312 17.6176 500.264 19.3985 501.662 20.7963C503.061 22.1942 504.842 23.1461 506.781 23.5318C508.72 23.9174 510.73 23.7192 512.557 22.9627C514.384 22.2062 515.945 20.9251 517.044 19.2814C518.142 17.6377 518.729 15.7053 518.729 13.7285C518.729 11.0776 517.675 8.5356 515.8 6.66116C513.926 4.78672 511.383 3.7334 508.731 3.7334Z" fill="url(#paint22_linear_311_1596)"/>
<path d="M503.994 19.1157V8.43095H508.993C509.705 8.40426 510.417 8.49177 511.102 8.69059C511.598 8.87904 512.014 9.23183 512.282 9.6901C512.594 10.2154 512.75 10.8188 512.732 11.4295C512.742 11.959 512.625 12.4832 512.392 12.9585C512.152 13.3871 511.808 13.7484 511.392 14.0083C511.084 14.2024 510.746 14.3442 510.392 14.428C510.667 14.5181 510.927 14.6497 511.162 14.818C511.343 14.9896 511.503 15.1805 511.642 15.3875C511.803 15.5935 511.943 15.8146 512.062 16.0473L513.501 19.1454H510.092L508.503 15.877C508.382 15.569 508.198 15.2899 507.963 15.0576C507.757 14.8913 507.498 14.8028 507.233 14.8077H506.973V19.1157H503.994ZM506.993 12.7589H508.253C508.517 12.7349 508.778 12.6848 509.033 12.6091C509.233 12.5676 509.409 12.4491 509.523 12.2792C509.646 12.0961 509.712 11.8802 509.712 11.6593C509.725 11.5122 509.704 11.3642 509.652 11.226C509.6 11.0877 509.519 10.9628 509.413 10.8599C509.085 10.6439 508.693 10.5485 508.303 10.59H506.993V12.7589Z" fill="url(#paint23_linear_311_1596)"/>
<path d="M252.687 0.824982C263.944 0.129676 275.214 1.9529 285.677 6.16221C288.166 7.16172 286.547 8.30123 285.237 9.74053C281.528 13.8285 277.4 18.1365 273.521 22.0846C272.521 23.0841 271.711 24.1933 270.272 24.3432C268.672 24.5031 265.803 23.2538 264.073 22.864C246.638 18.9259 229.573 28.1315 225.285 45.7429C219.286 70.4907 239.861 88.9217 263.944 83.7242C268.452 82.7247 270.462 81.1254 274.151 85.1034C275.85 86.9325 277.37 89.1016 279.099 91.0107C281.248 93.3296 284.677 95.9483 286.497 98.2371C286.977 98.8368 287.497 99.4462 286.817 100.126C286.137 100.806 281.528 102.295 280.249 102.685C252.257 111.16 220.746 104.913 207.6 76.5974C191.674 42.3542 214.848 2.65408 252.687 0.824982Z" fill="#F7F5F2"/>
<path d="M92.873 104.544L74.1085 80.4659L73.3887 79.5567L69.2799 74.3293C69.0865 74.0434 68.9583 73.7185 68.9042 73.3776C68.8501 73.0368 68.8715 72.6878 68.9668 72.3561C69.0621 72.0245 69.2291 71.7178 69.4559 71.4577C69.6827 71.1975 69.9639 70.9902 70.2796 70.8505C71.2793 70.3708 73.2787 69.2415 73.2787 69.2415C83.1958 63.1844 90.3937 52.0402 90.3937 40.5158V36.3377C90.4056 31.7144 89.5043 27.1342 87.7417 22.8599C85.979 18.5856 83.3897 14.7015 80.1222 11.43C76.8547 8.15848 72.9733 5.5639 68.7006 3.79555C64.428 2.0272 59.8482 1.11971 55.2239 1.12499H2.34929C2.13913 1.10316 1.92745 1.14837 1.74464 1.25432C1.56183 1.36026 1.41733 1.52136 1.33183 1.71454C1.24632 1.90773 1.22423 2.12296 1.26874 2.32947C1.31324 2.53599 1.42204 2.72353 1.57953 2.86437L17.6749 20.5656C18.1143 21.0484 18.65 21.4335 19.2475 21.6969C19.8449 21.9603 20.4909 22.0959 21.1439 22.0947H53.0446C57.1648 22.0947 61.1164 23.7313 64.0298 26.6442C66.9433 29.5571 68.58 33.5076 68.58 37.6271V38.0268C68.58 40.0661 68.1781 42.0853 67.3973 43.9692C66.6164 45.8531 65.4719 47.5648 64.0292 49.0063C62.5865 50.4478 60.8738 51.5909 58.989 52.3703C57.1042 53.1498 55.0843 53.5508 53.0446 53.5495H2.93915C2.16137 53.5494 1.41528 53.8575 0.864373 54.4065C0.313463 54.9554 0.00264551 55.7001 0 56.4777V103.545C0 104.189 0.255943 104.807 0.711524 105.262C1.16711 105.718 1.785 105.973 2.42929 105.973H18.4746C19.1189 105.973 19.7368 105.718 20.1924 105.262C20.648 104.807 20.9039 104.189 20.9039 103.545V78.0872C20.9039 77.459 21.1535 76.8565 21.5979 76.4123C22.0422 75.968 22.6449 75.7183 23.2732 75.7183H40.9481C41.8442 75.7199 42.7282 75.925 43.5335 76.3181C44.3388 76.7111 45.0442 77.2818 45.5967 77.9872L66.4507 104.714C66.757 105.106 67.1483 105.423 67.5952 105.641C68.042 105.859 68.5326 105.973 69.0299 105.973H92.1532C92.3172 105.969 92.4767 105.92 92.6151 105.832C92.7535 105.744 92.8655 105.62 92.9392 105.473C93.013 105.327 93.0458 105.163 93.0341 105C93.0225 104.836 92.9668 104.679 92.873 104.544Z" fill="#F7F5F2"/>
<path d="M191.303 1.12521H186.715C185.609 1.12625 184.516 1.35973 183.507 1.81091C182.498 2.26208 181.594 2.92097 180.856 3.74404L148.366 40.1061C148.163 40.3325 147.915 40.5135 147.638 40.6376C147.361 40.7616 147.06 40.8259 146.756 40.8259C146.453 40.8259 146.152 40.7616 145.875 40.6376C145.597 40.5135 145.349 40.3325 145.147 40.1061L112.656 3.77381C111.918 2.95074 111.015 2.29234 110.006 1.84116C108.997 1.38999 107.904 1.15602 106.798 1.15498H102.209C101.622 1.15762 101.061 1.39263 100.646 1.80847C100.232 2.22431 100 2.78734 100 3.3741V103.745C100 104.342 100.237 104.915 100.658 105.339C101.08 105.762 101.652 106.001 102.249 106.004H118.944C119.544 106.004 120.118 105.766 120.542 105.342C120.966 104.919 121.204 104.344 121.204 103.745V49.7713C121.205 49.4519 121.303 49.1403 121.484 48.8772C121.665 48.614 121.921 48.4118 122.219 48.2964C122.517 48.1809 122.842 48.1577 123.153 48.23C123.465 48.3024 123.747 48.4669 123.963 48.702L145.197 72.0904C145.398 72.3149 145.645 72.4945 145.921 72.6175C146.196 72.7404 146.495 72.8039 146.796 72.8039C147.098 72.8039 147.397 72.7404 147.672 72.6175C147.948 72.4945 148.194 72.3149 148.396 72.0904L169.6 48.7117C169.815 48.4751 170.096 48.3092 170.407 48.2359C170.718 48.1626 171.044 48.1854 171.342 48.3013C171.64 48.4171 171.896 48.6207 172.076 48.885C172.255 49.1492 172.351 49.4619 172.349 49.7815V103.755C172.349 104.354 172.587 104.928 173.011 105.352C173.434 105.776 174.009 106.014 174.608 106.014H191.303C191.901 106.011 192.473 105.772 192.895 105.348C193.316 104.925 193.553 104.352 193.553 103.755V3.38386C193.558 3.08658 193.504 2.79148 193.393 2.51564C193.282 2.2398 193.116 1.98892 192.907 1.77821C192.697 1.5675 192.447 1.4014 192.171 1.28919C191.896 1.17698 191.601 1.12114 191.303 1.12521Z" fill="#F7F5F2"/>
<path d="M485.429 1.125H467.874C467.648 1.125 467.425 1.1694 467.216 1.2558C467.007 1.34219 466.818 1.46902 466.658 1.62866C466.498 1.7883 466.372 1.97791 466.285 2.18649C466.199 2.39507 466.154 2.61861 466.154 2.84437V61.1556C466.155 61.3161 466.106 61.4726 466.014 61.6041C465.922 61.7356 465.791 61.8354 465.64 61.8901C465.489 61.9448 465.325 61.9516 465.17 61.9096C465.016 61.8676 464.877 61.7788 464.775 61.6553L417.119 4.61352C416.217 3.53538 415.09 2.66757 413.817 2.0718C412.545 1.47603 411.156 1.16659 409.751 1.16502H401.563C401.218 1.16766 400.887 1.30677 400.644 1.55204C400.4 1.7973 400.264 2.1289 400.264 2.47444V104.424C400.264 104.88 400.445 105.318 400.767 105.64C401.09 105.963 401.527 106.143 401.983 106.143H420.318C420.774 106.143 421.211 105.963 421.534 105.64C421.856 105.318 422.037 104.88 422.037 104.424V44.5739L473.412 105.074C473.657 105.365 473.963 105.598 474.309 105.755C474.655 105.913 475.032 105.991 475.412 105.984H485.799C485.925 105.981 486.046 105.93 486.135 105.84C486.225 105.751 486.276 105.63 486.279 105.504V2.0147C486.284 1.89981 486.266 1.78471 486.226 1.67698C486.186 1.56924 486.124 1.47074 486.044 1.38757C485.965 1.30439 485.869 1.2385 485.764 1.19333C485.658 1.14815 485.544 1.12487 485.429 1.125Z" fill="#F7F5F2"/>
<path d="M338.741 106.013C328.022 106.036 317.554 102.771 308.75 96.6579L310.079 94.7486C316.574 99.2418 324.034 102.145 331.858 103.223C339.682 104.301 347.65 103.524 355.118 100.955C362.586 98.3853 369.345 94.0961 374.848 88.4329C380.352 82.7697 384.446 75.8917 386.8 68.3544C389.154 60.817 389.702 52.8316 388.399 45.0435C387.096 37.2555 383.979 29.8831 379.3 23.5219C374.621 17.1606 368.511 11.9891 361.463 8.4248C354.416 4.86049 346.629 3.00329 338.731 3.00363C330.831 3.024 323.046 4.89446 315.999 8.46482C308.953 12.0352 302.841 17.2064 298.153 23.5639L296.273 22.1944C301.598 14.9338 308.694 9.15866 316.886 5.42041C325.078 1.68216 334.091 0.105657 343.066 0.841115C352.041 1.57657 360.677 4.59947 368.151 9.62147C375.624 14.6435 381.686 21.4967 385.756 29.5272C389.827 37.5578 391.771 46.4976 391.403 55.493C391.035 64.4884 388.367 73.2391 383.653 80.9102C378.94 88.5813 372.338 94.9167 364.479 99.3113C356.62 103.706 347.766 106.013 338.761 106.013H338.741Z" fill="url(#paint24_linear_311_1596)"/>
<path d="M338.742 99.7864C331.179 99.7872 323.73 97.9423 317.041 94.4116C310.353 90.881 304.628 85.7712 300.363 79.5264L302.273 78.2169C307.158 85.3771 314.045 90.9403 322.073 94.212C330.101 97.4838 338.915 98.3191 347.415 96.6142C355.915 94.9093 363.725 90.7399 369.869 84.6254C376.014 78.511 380.221 70.7228 381.967 62.2326C383.712 53.7425 382.918 44.926 379.684 36.8842C376.449 28.8424 370.918 21.9311 363.779 17.0126C356.641 12.0941 348.212 9.38657 339.544 9.22737C330.876 9.06818 322.353 11.4645 315.039 16.1175L313.789 14.1185C319.871 10.2478 326.769 7.84499 333.94 7.10049C341.11 6.35599 348.356 7.29031 355.103 9.82913C361.849 12.368 367.913 16.4415 372.813 21.7281C377.713 27.0146 381.315 33.3688 383.335 40.2878C385.354 47.2068 385.736 54.501 384.448 61.5928C383.161 68.6845 380.241 75.3793 375.919 81.1476C371.596 86.916 365.991 91.5994 359.545 94.8275C353.1 98.0555 345.991 99.7397 338.782 99.7464L338.742 99.7864Z" fill="url(#paint25_linear_311_1596)"/>
<path d="M338.742 94.8488C329.507 94.8613 320.531 91.7901 313.24 86.1226C305.949 80.4551 300.759 72.5161 298.494 63.5643L300.743 62.9943C302.65 70.4393 306.706 77.159 312.405 82.3158C318.105 87.4727 325.195 90.8389 332.795 91.9952C340.394 93.1514 348.166 92.0463 355.141 88.818C362.117 85.5897 367.988 80.3808 372.024 73.84C376.06 67.2992 378.081 59.7161 377.837 52.0348C377.592 44.3535 375.092 36.9135 370.649 30.6425C366.206 24.3714 360.015 19.5463 352.848 16.7679C345.681 13.9896 337.855 13.3809 330.345 15.0178L329.855 12.7489C335.549 11.5033 341.441 11.4704 347.148 12.6518C352.855 13.8332 358.249 16.2024 362.98 19.6059C367.711 23.0094 371.672 27.3706 374.606 32.4058C377.539 37.4409 379.379 43.0371 380.007 48.8303C380.634 54.6235 380.035 60.4841 378.247 66.0304C376.46 71.5766 373.524 76.6845 369.632 81.0216C365.739 85.3586 360.977 88.8276 355.655 91.2031C350.333 93.5785 344.571 94.807 338.742 94.8087V94.8488Z" fill="url(#paint26_linear_311_1596)"/>
<path d="M338.742 89.9115C329.042 89.9036 319.741 86.0483 312.881 79.1917C306.022 72.3351 302.163 63.0376 302.152 53.3396C302.151 52.0042 302.221 50.6696 302.362 49.3416L304.682 49.5915C304.542 50.8259 304.472 52.067 304.472 53.3094C304.47 59.8787 306.358 66.3098 309.91 71.8364C313.462 77.363 318.529 81.7519 324.506 84.4796C330.484 87.2073 337.12 88.1589 343.623 87.221C350.126 86.2831 356.223 83.4953 361.186 79.1898C366.148 74.8842 369.768 69.2429 371.613 62.938C373.458 56.633 373.451 49.9301 371.592 43.6291C369.734 37.3281 366.102 31.6946 361.13 27.3997C356.158 23.1049 350.056 20.3301 343.55 19.4061L343.88 17.1074C353.034 18.4189 361.352 23.148 367.159 30.3436C372.967 37.5392 375.832 46.6668 375.18 55.8897C374.527 65.1125 370.405 73.7459 363.643 80.0526C356.88 86.3593 347.979 89.8711 338.732 89.8813L338.742 89.9115Z" fill="url(#paint27_linear_311_1596)"/>
<path d="M338.741 84.974C330.362 84.9502 322.333 81.6081 316.412 75.6792C310.491 69.7504 307.161 61.7177 307.15 53.3396C307.138 48.3531 308.317 43.4356 310.589 38.9966L312.659 40.0561C310.556 44.1675 309.466 48.7218 309.48 53.3396C309.48 58.5599 310.874 63.685 313.519 68.1859C316.164 72.6867 319.964 76.3996 324.525 78.9403C329.086 81.4811 334.243 82.7579 339.463 82.6382C344.683 82.5186 349.776 81.0067 354.216 78.2595C358.656 75.5124 362.281 71.6295 364.717 67.0121C367.153 62.3948 368.311 57.2108 368.072 51.996C367.832 46.7813 366.204 41.7251 363.355 37.3504C360.506 32.9757 356.54 29.4411 351.867 27.1123L352.867 25.0332C359.263 28.2069 364.396 33.4501 367.434 39.9102C370.472 46.3703 371.235 53.6677 369.6 60.6163C367.964 67.5649 364.026 73.7558 358.425 78.1834C352.825 82.611 345.891 85.0148 338.751 85.0038L338.741 84.974Z" fill="url(#paint28_linear_311_1596)"/>
<path d="M338.741 80.0261C333.361 80.0238 328.107 78.3958 323.668 75.3555C319.229 72.3153 315.812 68.005 313.867 62.9895C311.921 57.974 311.537 52.4873 312.765 47.2497C313.992 42.012 316.775 37.2676 320.747 33.6387L322.316 35.358C318.787 38.5838 316.285 42.7767 315.123 47.4141C313.96 52.0516 314.188 56.9283 315.779 61.437C317.369 65.9458 320.251 69.887 324.066 72.7694C327.882 75.6517 332.461 77.3478 337.233 77.6464C342.006 77.9449 346.761 76.8326 350.905 74.4482C355.05 72.0638 358.401 68.5128 360.541 64.2374C362.681 59.9621 363.516 55.1515 362.941 50.4053C362.365 45.6592 360.406 41.1874 357.306 37.5469L359.076 36.0379C362.377 39.9178 364.498 44.6612 365.19 49.7079C365.881 54.7547 365.113 59.8935 362.977 64.518C360.841 69.1426 357.426 73.0593 353.135 75.8055C348.844 78.5517 343.856 80.013 338.761 80.0163L338.741 80.0261Z" fill="url(#paint29_linear_311_1596)"/>
<path d="M338.742 75.0887C333.661 75.0887 328.741 73.3109 324.834 70.0634C320.928 66.8158 318.281 62.3036 317.354 57.3094C316.426 52.3152 317.277 47.1538 319.757 42.7208C322.238 38.2878 326.192 34.8628 330.934 33.0396L331.764 35.2084C328.203 36.5815 325.126 38.9734 322.918 42.0849C320.709 45.1965 319.467 48.8897 319.346 52.7032C319.225 56.5167 320.231 60.2814 322.238 63.5265C324.245 66.7717 327.164 69.3533 330.63 70.9492C334.097 72.545 337.957 73.0842 341.728 72.4992C345.499 71.9141 349.014 70.2308 351.833 67.6598C354.653 65.0887 356.652 61.7436 357.581 58.0429C358.51 54.3422 358.327 50.4501 357.056 46.8526L359.246 46.083C360.398 49.3623 360.749 52.8699 360.267 56.3123C359.786 59.7547 358.488 63.0318 356.48 65.8696C354.473 68.7075 351.815 71.0232 348.729 72.6236C345.643 74.2241 342.218 75.0626 338.742 75.0687V75.0887Z" fill="url(#paint30_linear_311_1596)"/>
<defs>
<linearGradient id="paint0_linear_311_1596" x1="109.128" y1="194.9" x2="379.3" y2="68.8901" gradientUnits="userSpaceOnUse">
<stop stop-color="#A49375"/>
<stop offset="0.06" stop-color="#B0A182"/>
<stop offset="0.18" stop-color="#D1C4A3"/>
<stop offset="0.25" stop-color="#E5DBB8"/>
<stop offset="0.42" stop-color="#B8A98A"/>
<stop offset="0.5" stop-color="#A59477"/>
<stop offset="0.57" stop-color="#B3A485"/>
<stop offset="0.7" stop-color="#D7CCAA"/>
<stop offset="0.75" stop-color="#E5DBB8"/>
<stop offset="0.92" stop-color="#B7A888"/>
<stop offset="1" stop-color="#A49375"/>
</linearGradient>
<linearGradient id="paint1_linear_311_1596" x1="109.128" y1="194.9" x2="379.3" y2="68.89" gradientUnits="userSpaceOnUse">
<stop stop-color="#A49375"/>
<stop offset="0.06" stop-color="#B0A182"/>
<stop offset="0.18" stop-color="#D1C4A3"/>
<stop offset="0.25" stop-color="#E5DBB8"/>
<stop offset="0.42" stop-color="#B8A98A"/>
<stop offset="0.5" stop-color="#A59477"/>
<stop offset="0.57" stop-color="#B3A485"/>
<stop offset="0.7" stop-color="#D7CCAA"/>
<stop offset="0.75" stop-color="#E5DBB8"/>
<stop offset="0.92" stop-color="#B7A888"/>
<stop offset="1" stop-color="#A49375"/>
</linearGradient>
<linearGradient id="paint2_linear_311_1596" x1="109.128" y1="194.9" x2="379.3" y2="68.8902" gradientUnits="userSpaceOnUse">
<stop stop-color="#A49375"/>
<stop offset="0.06" stop-color="#B0A182"/>
<stop offset="0.18" stop-color="#D1C4A3"/>
<stop offset="0.25" stop-color="#E5DBB8"/>
<stop offset="0.42" stop-color="#B8A98A"/>
<stop offset="0.5" stop-color="#A59477"/>
<stop offset="0.57" stop-color="#B3A485"/>
<stop offset="0.7" stop-color="#D7CCAA"/>
<stop offset="0.75" stop-color="#E5DBB8"/>
<stop offset="0.92" stop-color="#B7A888"/>
<stop offset="1" stop-color="#A49375"/>
</linearGradient>
<linearGradient id="paint3_linear_311_1596" x1="109.129" y1="194.898" x2="379.298" y2="68.8857" gradientUnits="userSpaceOnUse">
<stop stop-color="#A49375"/>
<stop offset="0.06" stop-color="#B0A182"/>
<stop offset="0.18" stop-color="#D1C4A3"/>
<stop offset="0.25" stop-color="#E5DBB8"/>
<stop offset="0.42" stop-color="#B8A98A"/>
<stop offset="0.5" stop-color="#A59477"/>
<stop offset="0.57" stop-color="#B3A485"/>
<stop offset="0.7" stop-color="#D7CCAA"/>
<stop offset="0.75" stop-color="#E5DBB8"/>
<stop offset="0.92" stop-color="#B7A888"/>
<stop offset="1" stop-color="#A49375"/>
</linearGradient>
<linearGradient id="paint4_linear_311_1596" x1="109.128" y1="194.9" x2="379.3" y2="68.89" gradientUnits="userSpaceOnUse">
<stop stop-color="#A49375"/>
<stop offset="0.06" stop-color="#B0A182"/>
<stop offset="0.18" stop-color="#D1C4A3"/>
<stop offset="0.25" stop-color="#E5DBB8"/>
<stop offset="0.42" stop-color="#B8A98A"/>
<stop offset="0.5" stop-color="#A59477"/>
<stop offset="0.57" stop-color="#B3A485"/>
<stop offset="0.7" stop-color="#D7CCAA"/>
<stop offset="0.75" stop-color="#E5DBB8"/>
<stop offset="0.92" stop-color="#B7A888"/>
<stop offset="1" stop-color="#A49375"/>
</linearGradient>
<linearGradient id="paint5_linear_311_1596" x1="109.128" y1="194.9" x2="379.3" y2="68.89" gradientUnits="userSpaceOnUse">
<stop stop-color="#A49375"/>
<stop offset="0.06" stop-color="#B0A182"/>
<stop offset="0.18" stop-color="#D1C4A3"/>
<stop offset="0.25" stop-color="#E5DBB8"/>
<stop offset="0.42" stop-color="#B8A98A"/>
<stop offset="0.5" stop-color="#A59477"/>
<stop offset="0.57" stop-color="#B3A485"/>
<stop offset="0.7" stop-color="#D7CCAA"/>
<stop offset="0.75" stop-color="#E5DBB8"/>
<stop offset="0.92" stop-color="#B7A888"/>
<stop offset="1" stop-color="#A49375"/>
</linearGradient>
<linearGradient id="paint6_linear_311_1596" x1="109.128" y1="194.901" x2="379.301" y2="68.8919" gradientUnits="userSpaceOnUse">
<stop stop-color="#A49375"/>
<stop offset="0.06" stop-color="#B0A182"/>
<stop offset="0.18" stop-color="#D1C4A3"/>
<stop offset="0.25" stop-color="#E5DBB8"/>
<stop offset="0.42" stop-color="#B8A98A"/>
<stop offset="0.5" stop-color="#A59477"/>
<stop offset="0.57" stop-color="#B3A485"/>
<stop offset="0.7" stop-color="#D7CCAA"/>
<stop offset="0.75" stop-color="#E5DBB8"/>
<stop offset="0.92" stop-color="#B7A888"/>
<stop offset="1" stop-color="#A49375"/>
</linearGradient>
<linearGradient id="paint7_linear_311_1596" x1="109.128" y1="194.9" x2="379.3" y2="68.8901" gradientUnits="userSpaceOnUse">
<stop stop-color="#A49375"/>
<stop offset="0.06" stop-color="#B0A182"/>
<stop offset="0.18" stop-color="#D1C4A3"/>
<stop offset="0.25" stop-color="#E5DBB8"/>
<stop offset="0.42" stop-color="#B8A98A"/>
<stop offset="0.5" stop-color="#A59477"/>
<stop offset="0.57" stop-color="#B3A485"/>
<stop offset="0.7" stop-color="#D7CCAA"/>
<stop offset="0.75" stop-color="#E5DBB8"/>
<stop offset="0.92" stop-color="#B7A888"/>
<stop offset="1" stop-color="#A49375"/>
</linearGradient>
<linearGradient id="paint8_linear_311_1596" x1="109.128" y1="194.9" x2="379.301" y2="68.8903" gradientUnits="userSpaceOnUse">
<stop stop-color="#A49375"/>
<stop offset="0.06" stop-color="#B0A182"/>
<stop offset="0.18" stop-color="#D1C4A3"/>
<stop offset="0.25" stop-color="#E5DBB8"/>
<stop offset="0.42" stop-color="#B8A98A"/>
<stop offset="0.5" stop-color="#A59477"/>
<stop offset="0.57" stop-color="#B3A485"/>
<stop offset="0.7" stop-color="#D7CCAA"/>
<stop offset="0.75" stop-color="#E5DBB8"/>
<stop offset="0.92" stop-color="#B7A888"/>
<stop offset="1" stop-color="#A49375"/>
</linearGradient>
<linearGradient id="paint9_linear_311_1596" x1="109.129" y1="194.899" x2="379.3" y2="68.8895" gradientUnits="userSpaceOnUse">
<stop stop-color="#A49375"/>
<stop offset="0.06" stop-color="#B0A182"/>
<stop offset="0.18" stop-color="#D1C4A3"/>
<stop offset="0.25" stop-color="#E5DBB8"/>
<stop offset="0.42" stop-color="#B8A98A"/>
<stop offset="0.5" stop-color="#A59477"/>
<stop offset="0.57" stop-color="#B3A485"/>
<stop offset="0.7" stop-color="#D7CCAA"/>
<stop offset="0.75" stop-color="#E5DBB8"/>
<stop offset="0.92" stop-color="#B7A888"/>
<stop offset="1" stop-color="#A49375"/>
</linearGradient>
<linearGradient id="paint10_linear_311_1596" x1="109.127" y1="194.899" x2="379.298" y2="68.8881" gradientUnits="userSpaceOnUse">
<stop stop-color="#A49375"/>
<stop offset="0.06" stop-color="#B0A182"/>
<stop offset="0.18" stop-color="#D1C4A3"/>
<stop offset="0.25" stop-color="#E5DBB8"/>
<stop offset="0.42" stop-color="#B8A98A"/>
<stop offset="0.5" stop-color="#A59477"/>
<stop offset="0.57" stop-color="#B3A485"/>
<stop offset="0.7" stop-color="#D7CCAA"/>
<stop offset="0.75" stop-color="#E5DBB8"/>
<stop offset="0.92" stop-color="#B7A888"/>
<stop offset="1" stop-color="#A49375"/>
</linearGradient>
<linearGradient id="paint11_linear_311_1596" x1="109.128" y1="194.899" x2="379.299" y2="68.8879" gradientUnits="userSpaceOnUse">
<stop stop-color="#A49375"/>
<stop offset="0.06" stop-color="#B0A182"/>
<stop offset="0.18" stop-color="#D1C4A3"/>
<stop offset="0.25" stop-color="#E5DBB8"/>
<stop offset="0.42" stop-color="#B8A98A"/>
<stop offset="0.5" stop-color="#A59477"/>
<stop offset="0.57" stop-color="#B3A485"/>
<stop offset="0.7" stop-color="#D7CCAA"/>
<stop offset="0.75" stop-color="#E5DBB8"/>
<stop offset="0.92" stop-color="#B7A888"/>
<stop offset="1" stop-color="#A49375"/>
</linearGradient>
<linearGradient id="paint12_linear_311_1596" x1="109.128" y1="194.9" x2="379.301" y2="68.8896" gradientUnits="userSpaceOnUse">
<stop stop-color="#A49375"/>
<stop offset="0.06" stop-color="#B0A182"/>
<stop offset="0.18" stop-color="#D1C4A3"/>
<stop offset="0.25" stop-color="#E5DBB8"/>
<stop offset="0.42" stop-color="#B8A98A"/>
<stop offset="0.5" stop-color="#A59477"/>
<stop offset="0.57" stop-color="#B3A485"/>
<stop offset="0.7" stop-color="#D7CCAA"/>
<stop offset="0.75" stop-color="#E5DBB8"/>
<stop offset="0.92" stop-color="#B7A888"/>
<stop offset="1" stop-color="#A49375"/>
</linearGradient>
<linearGradient id="paint13_linear_311_1596" x1="109.129" y1="194.9" x2="379.301" y2="68.8903" gradientUnits="userSpaceOnUse">
<stop stop-color="#A49375"/>
<stop offset="0.06" stop-color="#B0A182"/>
<stop offset="0.18" stop-color="#D1C4A3"/>
<stop offset="0.25" stop-color="#E5DBB8"/>
<stop offset="0.42" stop-color="#B8A98A"/>
<stop offset="0.5" stop-color="#A59477"/>
<stop offset="0.57" stop-color="#B3A485"/>
<stop offset="0.7" stop-color="#D7CCAA"/>
<stop offset="0.75" stop-color="#E5DBB8"/>
<stop offset="0.92" stop-color="#B7A888"/>
<stop offset="1" stop-color="#A49375"/>
</linearGradient>
<linearGradient id="paint14_linear_311_1596" x1="109.129" y1="194.899" x2="379.3" y2="68.889" gradientUnits="userSpaceOnUse">
<stop stop-color="#A49375"/>
<stop offset="0.06" stop-color="#B0A182"/>
<stop offset="0.18" stop-color="#D1C4A3"/>
<stop offset="0.25" stop-color="#E5DBB8"/>
<stop offset="0.42" stop-color="#B8A98A"/>
<stop offset="0.5" stop-color="#A59477"/>
<stop offset="0.57" stop-color="#B3A485"/>
<stop offset="0.7" stop-color="#D7CCAA"/>
<stop offset="0.75" stop-color="#E5DBB8"/>
<stop offset="0.92" stop-color="#B7A888"/>
<stop offset="1" stop-color="#A49375"/>
</linearGradient>
<linearGradient id="paint15_linear_311_1596" x1="109.128" y1="194.9" x2="379.301" y2="68.8905" gradientUnits="userSpaceOnUse">
<stop stop-color="#A49375"/>
<stop offset="0.06" stop-color="#B0A182"/>
<stop offset="0.18" stop-color="#D1C4A3"/>
<stop offset="0.25" stop-color="#E5DBB8"/>
<stop offset="0.42" stop-color="#B8A98A"/>
<stop offset="0.5" stop-color="#A59477"/>
<stop offset="0.57" stop-color="#B3A485"/>
<stop offset="0.7" stop-color="#D7CCAA"/>
<stop offset="0.75" stop-color="#E5DBB8"/>
<stop offset="0.92" stop-color="#B7A888"/>
<stop offset="1" stop-color="#A49375"/>
</linearGradient>
<linearGradient id="paint16_linear_311_1596" x1="109.129" y1="194.9" x2="379.301" y2="68.8898" gradientUnits="userSpaceOnUse">
<stop stop-color="#A49375"/>
<stop offset="0.06" stop-color="#B0A182"/>
<stop offset="0.18" stop-color="#D1C4A3"/>
<stop offset="0.25" stop-color="#E5DBB8"/>
<stop offset="0.42" stop-color="#B8A98A"/>
<stop offset="0.5" stop-color="#A59477"/>
<stop offset="0.57" stop-color="#B3A485"/>
<stop offset="0.7" stop-color="#D7CCAA"/>
<stop offset="0.75" stop-color="#E5DBB8"/>
<stop offset="0.92" stop-color="#B7A888"/>
<stop offset="1" stop-color="#A49375"/>
</linearGradient>
<linearGradient id="paint17_linear_311_1596" x1="109.13" y1="194.9" x2="379.301" y2="68.8918" gradientUnits="userSpaceOnUse">
<stop stop-color="#A49375"/>
<stop offset="0.06" stop-color="#B0A182"/>
<stop offset="0.18" stop-color="#D1C4A3"/>
<stop offset="0.25" stop-color="#E5DBB8"/>
<stop offset="0.42" stop-color="#B8A98A"/>
<stop offset="0.5" stop-color="#A59477"/>
<stop offset="0.57" stop-color="#B3A485"/>
<stop offset="0.7" stop-color="#D7CCAA"/>
<stop offset="0.75" stop-color="#E5DBB8"/>
<stop offset="0.92" stop-color="#B7A888"/>
<stop offset="1" stop-color="#A49375"/>
</linearGradient>
<linearGradient id="paint18_linear_311_1596" x1="109.128" y1="194.899" x2="379.299" y2="68.8888" gradientUnits="userSpaceOnUse">
<stop stop-color="#A49375"/>
<stop offset="0.06" stop-color="#B0A182"/>
<stop offset="0.18" stop-color="#D1C4A3"/>
<stop offset="0.25" stop-color="#E5DBB8"/>
<stop offset="0.42" stop-color="#B8A98A"/>
<stop offset="0.5" stop-color="#A59477"/>
<stop offset="0.57" stop-color="#B3A485"/>
<stop offset="0.7" stop-color="#D7CCAA"/>
<stop offset="0.75" stop-color="#E5DBB8"/>
<stop offset="0.92" stop-color="#B7A888"/>
<stop offset="1" stop-color="#A49375"/>
</linearGradient>
<linearGradient id="paint19_linear_311_1596" x1="109.127" y1="194.899" x2="379.299" y2="68.8875" gradientUnits="userSpaceOnUse">
<stop stop-color="#A49375"/>
<stop offset="0.06" stop-color="#B0A182"/>
<stop offset="0.18" stop-color="#D1C4A3"/>
<stop offset="0.25" stop-color="#E5DBB8"/>
<stop offset="0.42" stop-color="#B8A98A"/>
<stop offset="0.5" stop-color="#A59477"/>
<stop offset="0.57" stop-color="#B3A485"/>
<stop offset="0.7" stop-color="#D7CCAA"/>
<stop offset="0.75" stop-color="#E5DBB8"/>
<stop offset="0.92" stop-color="#B7A888"/>
<stop offset="1" stop-color="#A49375"/>
</linearGradient>
<linearGradient id="paint20_linear_311_1596" x1="498.744" y1="13.7486" x2="518.719" y2="13.7486" gradientUnits="userSpaceOnUse">
<stop stop-color="#A49375"/>
<stop offset="0.11" stop-color="#AA9A83"/>
<stop offset="0.3" stop-color="#B9ADA6"/>
<stop offset="0.5" stop-color="#CAC3D0"/>
<stop offset="0.58" stop-color="#C3BABF"/>
<stop offset="0.86" stop-color="#AD9E8A"/>
<stop offset="1" stop-color="#A49375"/>
</linearGradient>
<linearGradient id="paint21_linear_311_1596" x1="503.994" y1="13.7482" x2="513.471" y2="13.7482" gradientUnits="userSpaceOnUse">
<stop stop-color="#A49375"/>
<stop offset="0.11" stop-color="#AA9A83"/>
<stop offset="0.3" stop-color="#B9ADA6"/>
<stop offset="0.5" stop-color="#CAC3D0"/>
<stop offset="0.58" stop-color="#C3BABF"/>
<stop offset="0.86" stop-color="#AD9E8A"/>
<stop offset="1" stop-color="#A49375"/>
</linearGradient>
<linearGradient id="paint22_linear_311_1596" x1="498.744" y1="13.7486" x2="518.719" y2="13.7486" gradientUnits="userSpaceOnUse">
<stop stop-color="#A49375"/>
<stop offset="0.06" stop-color="#B0A182"/>
<stop offset="0.18" stop-color="#D1C4A3"/>
<stop offset="0.25" stop-color="#E5DBB8"/>
<stop offset="0.42" stop-color="#B8A98A"/>
<stop offset="0.5" stop-color="#A59477"/>
<stop offset="0.57" stop-color="#B3A485"/>
<stop offset="0.7" stop-color="#D7CCAA"/>
<stop offset="0.75" stop-color="#E5DBB8"/>
<stop offset="0.92" stop-color="#B7A888"/>
<stop offset="1" stop-color="#A49375"/>
</linearGradient>
<linearGradient id="paint23_linear_311_1596" x1="498.746" y1="13.7482" x2="518.72" y2="13.7482" gradientUnits="userSpaceOnUse">
<stop stop-color="#A49375"/>
<stop offset="0.06" stop-color="#B0A182"/>
<stop offset="0.18" stop-color="#D1C4A3"/>
<stop offset="0.25" stop-color="#E5DBB8"/>
<stop offset="0.42" stop-color="#B8A98A"/>
<stop offset="0.5" stop-color="#A59477"/>
<stop offset="0.57" stop-color="#B3A485"/>
<stop offset="0.7" stop-color="#D7CCAA"/>
<stop offset="0.75" stop-color="#E5DBB8"/>
<stop offset="0.92" stop-color="#B7A888"/>
<stop offset="1" stop-color="#A49375"/>
</linearGradient>
<linearGradient id="paint24_linear_311_1596" x1="296.253" y1="53.3391" x2="391.416" y2="53.3391" gradientUnits="userSpaceOnUse">
<stop stop-color="#A49375"/>
<stop offset="0.06" stop-color="#B0A182"/>
<stop offset="0.18" stop-color="#D1C4A3"/>
<stop offset="0.25" stop-color="#E5DBB8"/>
<stop offset="0.42" stop-color="#B8A98A"/>
<stop offset="0.5" stop-color="#A59477"/>
<stop offset="0.57" stop-color="#B3A485"/>
<stop offset="0.7" stop-color="#D7CCAA"/>
<stop offset="0.75" stop-color="#E5DBB8"/>
<stop offset="0.92" stop-color="#B7A888"/>
<stop offset="1" stop-color="#A49375"/>
</linearGradient>
<linearGradient id="paint25_linear_311_1596" x1="296.254" y1="53.3392" x2="391.417" y2="53.3392" gradientUnits="userSpaceOnUse">
<stop stop-color="#A49375"/>
<stop offset="0.06" stop-color="#B0A182"/>
<stop offset="0.18" stop-color="#D1C4A3"/>
<stop offset="0.25" stop-color="#E5DBB8"/>
<stop offset="0.42" stop-color="#B8A98A"/>
<stop offset="0.5" stop-color="#A59477"/>
<stop offset="0.57" stop-color="#B3A485"/>
<stop offset="0.7" stop-color="#D7CCAA"/>
<stop offset="0.75" stop-color="#E5DBB8"/>
<stop offset="0.92" stop-color="#B7A888"/>
<stop offset="1" stop-color="#A49375"/>
</linearGradient>
<linearGradient id="paint26_linear_311_1596" x1="296.255" y1="53.3391" x2="391.417" y2="53.3391" gradientUnits="userSpaceOnUse">
<stop stop-color="#A49375"/>
<stop offset="0.06" stop-color="#B0A182"/>
<stop offset="0.18" stop-color="#D1C4A3"/>
<stop offset="0.25" stop-color="#E5DBB8"/>
<stop offset="0.42" stop-color="#B8A98A"/>
<stop offset="0.5" stop-color="#A59477"/>
<stop offset="0.57" stop-color="#B3A485"/>
<stop offset="0.7" stop-color="#D7CCAA"/>
<stop offset="0.75" stop-color="#E5DBB8"/>
<stop offset="0.92" stop-color="#B7A888"/>
<stop offset="1" stop-color="#A49375"/>
</linearGradient>
<linearGradient id="paint27_linear_311_1596" x1="296.254" y1="53.3396" x2="391.416" y2="53.3396" gradientUnits="userSpaceOnUse">
<stop stop-color="#A49375"/>
<stop offset="0.06" stop-color="#B0A182"/>
<stop offset="0.18" stop-color="#D1C4A3"/>
<stop offset="0.25" stop-color="#E5DBB8"/>
<stop offset="0.42" stop-color="#B8A98A"/>
<stop offset="0.5" stop-color="#A59477"/>
<stop offset="0.57" stop-color="#B3A485"/>
<stop offset="0.7" stop-color="#D7CCAA"/>
<stop offset="0.75" stop-color="#E5DBB8"/>
<stop offset="0.92" stop-color="#B7A888"/>
<stop offset="1" stop-color="#A49375"/>
</linearGradient>
<linearGradient id="paint28_linear_311_1596" x1="296.254" y1="53.3393" x2="391.416" y2="53.3393" gradientUnits="userSpaceOnUse">
<stop stop-color="#A49375"/>
<stop offset="0.06" stop-color="#B0A182"/>
<stop offset="0.18" stop-color="#D1C4A3"/>
<stop offset="0.25" stop-color="#E5DBB8"/>
<stop offset="0.42" stop-color="#B8A98A"/>
<stop offset="0.5" stop-color="#A59477"/>
<stop offset="0.57" stop-color="#B3A485"/>
<stop offset="0.7" stop-color="#D7CCAA"/>
<stop offset="0.75" stop-color="#E5DBB8"/>
<stop offset="0.92" stop-color="#B7A888"/>
<stop offset="1" stop-color="#A49375"/>
</linearGradient>
<linearGradient id="paint29_linear_311_1596" x1="296.254" y1="53.3391" x2="391.416" y2="53.3391" gradientUnits="userSpaceOnUse">
<stop stop-color="#A49375"/>
<stop offset="0.06" stop-color="#B0A182"/>
<stop offset="0.18" stop-color="#D1C4A3"/>
<stop offset="0.25" stop-color="#E5DBB8"/>
<stop offset="0.42" stop-color="#B8A98A"/>
<stop offset="0.5" stop-color="#A59477"/>
<stop offset="0.57" stop-color="#B3A485"/>
<stop offset="0.7" stop-color="#D7CCAA"/>
<stop offset="0.75" stop-color="#E5DBB8"/>
<stop offset="0.92" stop-color="#B7A888"/>
<stop offset="1" stop-color="#A49375"/>
</linearGradient>
<linearGradient id="paint30_linear_311_1596" x1="296.254" y1="53.3395" x2="391.416" y2="53.3395" gradientUnits="userSpaceOnUse">
<stop stop-color="#A49375"/>
<stop offset="0.06" stop-color="#B0A182"/>
<stop offset="0.18" stop-color="#D1C4A3"/>
<stop offset="0.25" stop-color="#E5DBB8"/>
<stop offset="0.42" stop-color="#B8A98A"/>
<stop offset="0.5" stop-color="#A59477"/>
<stop offset="0.57" stop-color="#B3A485"/>
<stop offset="0.7" stop-color="#D7CCAA"/>
<stop offset="0.75" stop-color="#E5DBB8"/>
<stop offset="0.92" stop-color="#B7A888"/>
<stop offset="1" stop-color="#A49375"/>
</linearGradient>
</defs>
</svg>
