<svg width="410" height="100" viewBox="0 0 410 100" fill="none" xmlns="http://www.w3.org/2000/svg">
<g clip-path="url(#clip0_107_506)">
<path d="M213.779 0.133572C223.207 -0.51431 232.645 1.19998 241.408 5.15195C243.491 6.17194 242.136 7.19194 241.044 8.51793C237.933 12.3633 234.476 16.4127 231.219 20.1153C230.418 21.0333 229.709 22.1043 228.49 22.2369C227.271 22.3695 224.751 21.2169 223.295 20.8497C208.676 17.1471 194.374 25.7967 190.781 42.3512C185.732 65.6071 202.999 82.9368 223.186 78.051C226.961 77.133 228.644 75.6132 231.738 79.3464C233.166 81.0702 234.467 83.1408 235.886 84.8952C237.705 87.0677 240.562 89.5361 242.09 91.6883C242.491 92.2493 242.891 92.8307 242.354 93.4631C241.818 94.0955 237.924 95.5031 236.85 95.8703C213.406 103.826 186.987 97.9613 175.961 71.3904C162.643 39.1688 182.066 1.85736 213.779 0.133572Z" fill="url(#paint0_linear_107_506)"/>
<path d="M79.8376 97.6145L64.1081 74.9808L63.5077 74.124L60.0598 69.2484C59.8984 68.978 59.792 68.6711 59.7479 68.3496C59.7039 68.028 59.7233 67.6995 59.8049 67.3873C59.8864 67.075 60.0281 66.7867 60.2199 66.5425C60.4117 66.2983 60.649 66.1044 60.9149 65.9742C61.7519 65.5254 63.4076 64.4646 63.4076 64.4646C71.7227 58.7833 77.7543 48.3079 77.7543 37.4756V33.5486C77.7543 24.7946 74.6526 16.3991 69.1317 10.2091C63.6108 4.01905 56.1227 0.541535 48.315 0.541535H3.96502C3.80384 0.559052 3.64979 0.624485 3.5187 0.731087C3.38761 0.837689 3.28427 0.981593 3.21936 1.14793C3.15445 1.31428 3.13031 1.49703 3.14945 1.67733C3.16859 1.85762 3.23032 2.02892 3.32824 2.17353L16.8106 18.8096C17.1786 19.2623 17.6268 19.6241 18.1264 19.8717C18.6261 20.1193 19.1663 20.2474 19.7127 20.2478H46.4591C49.9118 20.2478 53.2231 21.7856 55.6645 24.523C58.106 27.2603 59.4775 30.9728 59.4775 34.844V35.2214C59.4751 39.0908 58.1025 42.8007 55.6613 45.5358C53.2201 48.2709 49.9102 49.8073 46.4591 49.8073H4.45632C3.80486 49.8073 3.1801 50.0974 2.71945 50.6139C2.25881 51.1304 2 51.8309 2 52.5613V96.7985C2 97.4044 2.21469 97.9856 2.59685 98.4141C2.97902 98.8426 3.49735 99.0833 4.03781 99.0833H17.4838C18.0227 99.0806 18.5387 98.8387 18.9189 98.4105C19.2991 97.9823 19.5125 97.4027 19.5125 96.7985V72.7878C19.5149 72.1971 19.7259 71.6316 20.0993 71.2148C20.4727 70.7981 20.9781 70.5642 21.5049 70.5642H36.3155C37.0663 70.5644 37.8072 70.7565 38.4819 71.1259C39.1566 71.4953 39.7473 72.0322 40.2092 72.696L57.6853 97.8083C57.9405 98.1799 58.2685 98.4809 58.6439 98.6878C59.0193 98.8947 59.4321 99.0021 59.8505 99.0017H79.2371C79.3807 99.0017 79.5212 98.9565 79.6429 98.8711C79.7645 98.7857 79.8622 98.6637 79.9249 98.5189C79.9875 98.3742 80.0126 98.2126 79.9971 98.0526C79.9817 97.8927 79.9264 97.7408 79.8376 97.6145Z" fill="url(#paint1_linear_107_506)"/>
<path d="M162.333 0.460043H158.485C157.559 0.460529 156.644 0.679699 155.799 1.10325C154.954 1.5268 154.199 2.14524 153.581 2.91824L126.353 37.0677C126.182 37.2848 125.972 37.4586 125.737 37.5777C125.501 37.6968 125.246 37.7583 124.988 37.7583C124.73 37.7583 124.475 37.6968 124.239 37.5777C124.004 37.4586 123.794 37.2848 123.623 37.0677L96.413 2.94883C95.7956 2.17583 95.0398 1.5574 94.1949 1.13385C93.35 0.710298 92.435 0.491128 91.5095 0.490642H87.6613C87.1787 0.490642 86.716 0.705567 86.3747 1.08814C86.0335 1.47071 85.8418 1.98959 85.8418 2.53063V96.87C85.8418 97.4327 86.0412 97.9723 86.3961 98.3702C86.7509 98.7681 87.2322 98.9916 87.7341 98.9916H101.726C102.228 98.9916 102.709 98.7681 103.064 98.3702C103.419 97.9723 103.618 97.4327 103.618 96.87V46.1762C103.615 45.8742 103.694 45.5781 103.844 45.3274C103.994 45.0767 104.209 44.8832 104.46 44.7725C104.71 44.6619 104.985 44.6393 105.248 44.7078C105.51 44.7764 105.748 44.9328 105.929 45.1562L123.687 67.1269C123.858 67.344 124.068 67.5179 124.303 67.6369C124.538 67.756 124.794 67.8176 125.052 67.8176C125.31 67.8176 125.565 67.756 125.8 67.6369C126.036 67.5179 126.246 67.344 126.416 67.1269L144.174 45.1562C144.356 44.9328 144.593 44.7764 144.856 44.7078C145.118 44.6393 145.393 44.6619 145.644 44.7725C145.894 44.8832 146.109 45.0767 146.259 45.3274C146.41 45.5781 146.489 45.8742 146.485 46.1762V96.8802C146.485 97.4429 146.685 97.9825 147.039 98.3804C147.394 98.7783 147.876 99.0018 148.378 99.0018H162.369C162.871 99.0018 163.353 98.7783 163.707 98.3804C164.062 97.9825 164.262 97.4429 164.262 96.8802V2.54084C164.267 2.25892 164.22 1.97877 164.124 1.7181C164.028 1.45744 163.885 1.2219 163.704 1.02637C163.523 0.830837 163.308 0.67957 163.072 0.582095C162.835 0.48462 162.584 0.443056 162.333 0.460043Z" fill="url(#paint2_linear_107_506)"/>
<path d="M408.846 0.459936H394.127C393.746 0.459936 393.38 0.629725 393.11 0.931957C392.841 1.23419 392.689 1.64411 392.689 2.07153V56.8759C392.689 57.026 392.647 57.1722 392.569 57.2948C392.492 57.4174 392.383 57.5105 392.258 57.5616C392.132 57.6128 391.995 57.6194 391.866 57.5807C391.736 57.542 391.621 57.4597 391.534 57.3451L351.587 3.69332C350.833 2.6808 349.89 1.86639 348.824 1.30767C347.758 0.748946 346.596 0.459549 345.419 0.459936H338.56C338.269 0.459924 337.991 0.588557 337.785 0.817812C337.578 1.04707 337.461 1.35837 337.459 1.68393V97.4921C337.459 97.9195 337.61 98.3294 337.88 98.6316C338.15 98.9339 338.515 99.1037 338.896 99.1037H354.271C354.652 99.1037 355.018 98.9339 355.287 98.6316C355.557 98.3294 355.708 97.9195 355.708 97.4921V41.2394L398.767 98.1449C398.968 98.412 399.219 98.627 399.501 98.7749C399.784 98.9228 400.092 99.0002 400.404 99.0017H409.147C409.254 98.999 409.356 98.9495 409.43 98.8637C409.505 98.7779 409.547 98.6627 409.547 98.5427V1.24534C409.545 1.03786 409.47 0.839617 409.339 0.692896C409.208 0.546175 409.031 0.462579 408.846 0.459936Z" fill="url(#paint3_linear_107_506)"/>
<path d="M285.895 99.0019C276.917 99.0219 268.15 95.953 260.777 90.2095L261.887 88.4143C267.33 92.6365 273.583 95.3641 280.14 96.3766C286.697 97.3891 293.375 96.6582 299.634 94.2429C305.892 91.8275 311.556 87.7956 316.169 82.4727C320.781 77.1498 324.212 70.6852 326.184 63.6011C328.156 56.5171 328.615 49.0122 327.522 41.6928C326.43 34.3733 323.818 27.4446 319.896 21.4662C315.974 15.4879 310.853 10.6276 304.947 7.278C299.04 3.92838 292.514 2.18336 285.895 2.1839C279.27 2.19993 272.74 3.95678 266.83 7.3135C260.919 10.6702 255.793 15.5334 251.862 21.5128L250.297 20.2174C254.76 13.3971 260.709 7.9731 267.574 4.46312C274.438 0.953136 281.991 -0.525722 289.511 0.167671C297.031 0.861064 304.266 3.70357 310.527 8.42393C316.789 13.1443 321.867 19.5849 325.276 27.1313C328.686 34.6776 330.314 43.0778 330.005 51.5302C329.696 59.9825 327.46 68.205 323.51 75.4129C319.56 82.6208 314.029 88.5736 307.444 92.7031C300.859 96.8327 293.44 99.0013 285.895 99.0019Z" fill="url(#paint4_linear_107_506)"/>
<path d="M285.894 93.147C279.556 93.1463 273.314 91.4113 267.71 88.0927C262.105 84.7741 257.308 79.9722 253.734 74.1038L255.335 72.8695C259.43 79.595 265.201 84.8197 271.927 87.8918C278.653 90.9639 286.037 91.7474 293.158 90.1445C300.279 88.5415 306.821 84.6232 311.968 78.8783C317.116 73.1334 320.64 65.8164 322.102 57.84C323.565 49.8636 322.9 41.5811 320.19 34.0258C317.481 26.4705 312.847 19.9769 306.868 15.3552C300.888 10.7335 293.827 8.18836 286.565 8.03723C279.303 7.88611 272.163 10.1357 266.034 14.5054L264.988 12.6592C270.086 9.02243 275.869 6.76574 281.879 6.06778C287.889 5.36981 293.962 6.24973 299.616 8.63787C305.271 11.026 310.352 14.8569 314.458 19.8273C318.563 24.7977 321.581 30.7712 323.272 37.2752C324.963 43.7792 325.28 50.6351 324.199 57.3005C323.118 63.9658 320.669 70.2577 317.044 75.6782C313.42 81.0987 308.72 85.499 303.316 88.531C297.913 91.5629 291.954 93.1433 285.912 93.147H285.894Z" fill="url(#paint5_linear_107_506)"/>
<path d="M285.893 88.5059C278.153 88.5166 270.63 85.6294 264.52 80.3023C258.409 74.9752 254.059 67.5131 252.16 59.0994L254.052 58.5588C255.566 65.2415 258.723 71.3136 263.163 76.0841C267.603 80.8545 273.148 84.1319 279.168 85.5432C285.187 86.9545 291.439 86.4432 297.212 84.0672C302.985 81.6913 308.048 77.5463 311.823 72.1037C315.599 66.6612 317.936 60.1398 318.568 53.2815C319.201 46.4232 318.105 39.5034 315.403 33.3095C312.701 27.1156 308.503 21.8964 303.286 18.2457C298.069 14.5949 292.043 12.6593 285.893 12.659C283.529 12.6593 281.172 12.9432 278.861 13.5056L278.452 11.3738C283.225 10.1987 288.166 10.1641 292.952 11.2723C297.738 12.3805 302.263 14.6067 306.231 17.8058C310.198 21.0049 313.521 25.1053 315.981 29.8398C318.441 34.5743 319.985 39.8367 320.51 45.2845C321.036 50.7322 320.532 56.243 319.032 61.4579C317.532 66.6728 315.068 71.4749 311.803 75.5515C308.537 79.628 304.542 82.8875 300.078 85.1178C295.614 87.3481 290.781 88.499 285.893 88.4957V88.5059Z" fill="url(#paint6_linear_107_506)"/>
<path d="M285.893 83.8651C277.768 83.8543 269.978 80.2304 264.232 73.7883C258.486 67.3462 255.254 58.612 255.244 49.5015C255.241 48.2508 255.302 47.0009 255.426 45.7581L257.355 45.9927C257.245 47.1582 257.191 48.3295 257.191 49.5015C257.192 55.6747 258.776 61.7175 261.754 66.9098C264.732 72.102 268.979 76.2246 273.989 78.7862C278.998 81.3479 284.559 82.2405 290.008 81.3577C295.458 80.4749 300.566 77.8539 304.724 73.8072C308.882 69.7604 311.914 64.4586 313.46 58.5335C315.005 52.6085 314.999 46.3101 313.441 40.3891C311.883 34.4681 308.839 29.1743 304.673 25.1384C300.507 21.1026 295.393 18.4951 289.942 17.6266L290.215 15.4642C297.889 16.6957 304.862 21.141 309.73 27.9051C314.598 34.6692 317 43.25 316.453 51.9199C315.905 60.5899 312.448 68.7054 306.778 74.6326C301.108 80.5598 293.646 83.8586 285.893 83.8651Z" fill="url(#paint7_linear_107_506)"/>
<path d="M285.895 79.2241C278.867 79.2133 272.13 76.0783 267.16 70.5066C262.191 64.9349 259.395 57.3811 259.385 49.5015C259.37 44.8139 260.356 40.1905 262.26 36.0171L263.997 37.0371C261.791 41.9002 260.923 47.3883 261.504 52.8054C262.084 58.2224 264.086 63.3241 267.256 67.4634C270.426 71.6026 274.622 74.5929 279.31 76.0547C283.998 77.5166 288.968 77.3842 293.589 75.6744C298.21 73.9646 302.274 70.7544 305.265 66.451C308.257 62.1477 310.041 56.9451 310.391 51.5033C310.741 46.0615 309.641 40.6258 307.232 35.8856C304.822 31.1454 301.212 27.3145 296.857 24.8788L297.767 22.9204C303.111 25.9121 307.398 30.8394 309.933 36.9039C312.468 42.9684 313.103 49.8148 311.734 56.3342C310.366 62.8535 307.074 68.6638 302.393 72.8238C297.711 76.9838 291.914 79.2498 285.94 79.2547L285.895 79.2241Z" fill="url(#paint8_linear_107_506)"/>
<path d="M285.894 74.583C281.383 74.5831 276.977 73.054 273.255 70.1964C269.533 67.3389 266.668 63.2863 265.037 58.5707C263.406 53.855 263.084 48.6966 264.115 43.7725C265.145 38.8483 267.479 34.3884 270.811 30.9782L272.121 32.5898C269.162 35.6232 267.065 39.566 266.091 43.9266C265.117 48.2873 265.309 52.8729 266.644 57.1119C267.978 61.3509 270.396 65.0557 273.596 67.7644C276.796 70.4731 280.636 72.066 284.638 72.3444C288.639 72.6228 292.626 71.5745 296.1 69.3301C299.573 67.0857 302.381 63.7445 304.173 59.723C305.965 55.7016 306.662 51.1778 306.176 46.7155C305.69 42.2533 304.044 38.05 301.442 34.6298L302.925 33.212C305.697 36.8585 307.479 41.3189 308.061 46.0654C308.643 50.812 308 55.646 306.208 59.9958C304.417 64.3457 301.552 68.0291 297.952 70.6106C294.352 73.1921 290.168 74.5635 285.894 74.5626V74.583Z" fill="url(#paint9_linear_107_506)"/>
<path d="M285.894 69.9319C281.613 69.9814 277.453 68.3363 274.146 65.286C270.84 62.2357 268.599 57.9758 267.817 53.2556C267.036 48.5355 267.764 43.6575 269.874 39.4802C271.984 35.3028 275.341 32.0936 279.353 30.4172L280.054 32.4572C277.071 33.7481 274.494 35.9957 272.645 38.9192C270.795 41.8428 269.755 45.3126 269.654 48.8952C269.553 52.4778 270.396 56.0144 272.077 59.063C273.758 62.1116 276.204 64.5371 279.108 66.0364C282.012 67.5357 285.245 68.0424 288.404 67.4931C291.563 66.9439 294.508 65.363 296.871 62.9481C299.233 60.5332 300.909 57.3913 301.688 53.9149C302.467 50.4385 302.315 46.7819 301.251 43.4018L303.07 42.6674C304.053 45.7507 304.359 49.0539 303.963 52.2979C303.567 55.5419 302.481 58.6314 300.795 61.3053C299.11 63.9793 296.875 66.1591 294.28 67.6606C291.685 69.162 288.805 69.9411 285.885 69.9319H285.894Z" fill="url(#paint10_linear_107_506)"/>
</g>
<g clip-path="url(#clip1_107_506)">
<path d="M214.016 7.11317C223.454 6.56433 232.902 8.01657 241.675 11.3645C243.761 12.2286 242.404 13.0926 241.311 14.2159C238.196 17.4735 234.735 20.9039 231.475 24.0406C230.673 24.8182 229.963 25.7255 228.743 25.8379C227.522 25.9502 224.999 24.9738 223.542 24.6627C208.906 21.5261 194.589 28.8535 190.992 42.8776C185.937 62.5787 203.223 77.2595 223.433 73.1206C227.212 72.3429 228.897 71.0554 231.994 74.2179C233.424 75.6783 234.726 77.4323 236.147 78.9186C237.968 80.7591 240.828 82.8502 242.358 84.6734C242.759 85.1486 243.16 85.6411 242.622 86.1769C242.085 86.7126 238.187 87.9051 237.112 88.2161C213.642 94.956 187.194 89.9875 176.155 67.4781C162.822 40.1817 182.267 8.57348 214.016 7.11317Z" fill="white"/>
<path d="M79.9242 89.6936L64.1773 70.5196L63.5762 69.7938L60.1244 65.6635C59.9629 65.4344 59.8563 65.1744 59.8122 64.902C59.7682 64.6296 59.7876 64.3513 59.8693 64.0868C59.9509 63.8223 60.0927 63.578 60.2847 63.3712C60.4767 63.1643 60.7143 63 60.9805 62.8898C61.8184 62.5096 63.476 61.6109 63.476 61.6109C71.8003 56.7979 77.8386 47.9238 77.8386 38.7472V35.4205C77.8386 28.0046 74.7335 20.8924 69.2065 15.6486C63.6794 10.4047 56.183 7.45874 48.3665 7.45874H3.96721C3.80584 7.47358 3.65163 7.52901 3.52039 7.61932C3.38916 7.70963 3.2857 7.83153 3.22071 7.97245C3.15573 8.11337 3.13157 8.26819 3.15073 8.42092C3.16989 8.57365 3.23169 8.71877 3.32972 8.84128L16.8271 22.9345C17.1955 23.318 17.6442 23.6244 18.1444 23.8342C18.6446 24.044 19.1855 24.1525 19.7324 24.1528H46.5086C49.9652 24.1528 53.2801 25.4556 55.7243 27.7745C58.1684 30.0934 59.5415 33.2385 59.5415 36.5179V36.8376C59.5391 40.1155 58.165 43.2584 55.7211 45.5754C53.2772 47.8924 49.9636 49.194 46.5086 49.194H4.45905C3.80687 49.194 3.18141 49.4398 2.72026 49.8773C2.2591 50.3149 2 50.9083 2 51.5271V89.0024C2 89.5157 2.21493 90.008 2.59752 90.371C2.98011 90.734 3.49902 90.9379 4.04008 90.9379H17.5011C18.0406 90.9356 18.5571 90.7307 18.9378 90.368C19.3184 90.0052 19.532 89.5142 19.532 89.0024V68.6618C19.5345 68.1614 19.7457 67.6823 20.1194 67.3293C20.4932 66.9763 20.9992 66.7781 21.5266 66.7781H36.3537C37.1053 66.7783 37.8471 66.941 38.5226 67.2539C39.198 67.5669 39.7894 68.0218 40.2517 68.5841L57.7474 89.8578C58.0028 90.1727 58.3311 90.4276 58.707 90.6029C59.0828 90.7782 59.4961 90.8692 59.9149 90.8688H79.3232C79.4668 90.8689 79.6076 90.8305 79.7293 90.7582C79.8511 90.6859 79.949 90.5825 80.0117 90.4599C80.0744 90.3372 80.0995 90.2003 80.084 90.0648C80.0685 89.9293 80.0132 89.8007 79.9242 89.6936Z" fill="white"/>
<path d="M162.512 7.38973H158.659C157.733 7.39015 156.817 7.57582 155.971 7.93463C155.125 8.29344 154.369 8.81734 153.75 9.47218L126.492 38.4017C126.321 38.5856 126.11 38.7329 125.875 38.8338C125.639 38.9347 125.384 38.9868 125.125 38.9868C124.867 38.9868 124.611 38.9347 124.376 38.8338C124.14 38.7329 123.93 38.5856 123.759 38.4017L96.5185 9.4981C95.9004 8.84326 95.1438 8.31936 94.2979 7.96055C93.4521 7.60174 92.5361 7.41607 91.6096 7.41566H87.7571C87.274 7.41566 86.8107 7.59773 86.4691 7.92182C86.1275 8.24592 85.9355 8.68549 85.9355 9.14382V89.063C85.9355 89.5396 86.1352 89.9968 86.4904 90.3339C86.8457 90.6709 87.3275 90.8603 87.8299 90.8603H101.837C102.34 90.8603 102.822 90.6709 103.177 90.3339C103.532 89.9968 103.732 89.5396 103.732 89.063V46.118C103.728 45.8621 103.807 45.6113 103.958 45.3989C104.108 45.1866 104.323 45.0226 104.574 44.9289C104.825 44.8351 105.1 44.816 105.363 44.8741C105.626 44.9321 105.864 45.0646 106.045 45.2539L123.823 63.8663C123.994 64.0502 124.204 64.1975 124.44 64.2983C124.675 64.3992 124.931 64.4514 125.189 64.4514C125.448 64.4514 125.703 64.3992 125.939 64.2983C126.174 64.1975 126.384 64.0502 126.555 63.8663L144.333 45.2539C144.515 45.0646 144.753 44.9321 145.015 44.8741C145.278 44.816 145.553 44.8351 145.804 44.9289C146.055 45.0226 146.27 45.1866 146.42 45.3989C146.571 45.6113 146.65 45.8621 146.647 46.118V89.0716C146.647 89.5483 146.846 90.0055 147.201 90.3425C147.557 90.6796 148.039 90.8689 148.541 90.8689H162.548C163.051 90.8689 163.533 90.6796 163.888 90.3425C164.243 90.0055 164.443 89.5483 164.443 89.0716V9.15247C164.448 8.91364 164.401 8.67632 164.305 8.45549C164.209 8.23467 164.066 8.03513 163.885 7.86949C163.703 7.70385 163.488 7.57571 163.251 7.49313C163.015 7.41055 162.763 7.37534 162.512 7.38973Z" fill="white"/>
<path d="M409.299 7.38965H394.563C394.181 7.38965 393.815 7.53349 393.545 7.78952C393.276 8.04555 393.124 8.39282 393.124 8.7549V55.1821C393.123 55.3093 393.081 55.4332 393.004 55.537C392.927 55.6409 392.818 55.7198 392.692 55.7631C392.566 55.8064 392.429 55.812 392.299 55.7792C392.17 55.7464 392.054 55.6768 391.967 55.5796L351.976 10.1288C351.221 9.27105 350.277 8.58112 349.21 8.1078C348.143 7.63448 346.979 7.38932 345.801 7.38965H338.934C338.643 7.38964 338.364 7.49861 338.158 7.69282C337.952 7.88703 337.834 8.15075 337.832 8.42655V89.59C337.832 89.9521 337.984 90.2993 338.254 90.5554C338.523 90.8114 338.889 90.9552 339.271 90.9552H354.663C355.044 90.9552 355.411 90.8114 355.68 90.5554C355.95 90.2993 356.102 89.9521 356.102 89.59V41.9357L399.208 90.143C399.409 90.3693 399.66 90.5514 399.944 90.6767C400.227 90.802 400.535 90.8676 400.847 90.8688H409.6C409.707 90.8666 409.809 90.8246 409.884 90.7519C409.958 90.6793 410 90.5816 410 90.48V8.055C409.998 7.87923 409.923 7.71129 409.792 7.587C409.661 7.46271 409.484 7.39189 409.299 7.38965Z" fill="white"/>
<path d="M285.225 90.8689C275.732 90.8859 266.462 88.2861 258.666 83.4205L259.839 81.8997C265.595 85.4766 272.206 87.7872 279.14 88.6449C286.073 89.5027 293.134 88.8835 299.752 86.8373C306.37 84.7912 312.359 81.3756 317.236 76.8663C322.112 72.357 325.74 66.8806 327.826 60.8793C329.911 54.8781 330.396 48.5204 329.241 42.3198C328.086 36.1192 325.324 30.2495 321.177 25.185C317.03 20.1204 311.615 16.0031 305.37 13.1655C299.125 10.3278 292.224 8.84955 285.225 8.85001C278.219 8.86359 271.315 10.3519 265.065 13.1955C258.816 16.0392 253.395 20.159 249.239 25.2244L247.584 24.127C252.304 18.3492 258.593 13.7543 265.852 10.7808C273.111 7.80737 281.097 6.55457 289.048 7.14197C296.999 7.72938 304.65 10.1374 311.271 14.1362C317.891 18.135 323.26 23.5912 326.866 29.9841C330.471 36.3769 332.193 43.4931 331.866 50.6535C331.539 57.8139 329.174 64.7795 324.998 70.8856C320.822 76.9918 314.973 82.0346 308.011 85.533C301.048 89.0313 293.203 90.8684 285.225 90.8689Z" fill="white"/>
<path d="M285.225 85.9091C278.524 85.9084 271.924 84.4387 265.998 81.6273C260.072 78.816 255 74.7481 251.221 69.7767L252.914 68.7311C257.243 74.4286 263.345 78.8547 270.457 81.4572C277.569 84.0597 285.377 84.7234 292.907 83.3655C300.436 82.0076 307.354 78.6882 312.796 73.8214C318.239 68.9547 321.966 62.756 323.512 55.9989C325.058 49.2417 324.355 42.2252 321.49 35.8248C318.625 29.4244 313.726 23.9234 307.403 20.0081C301.08 16.0929 293.613 13.9367 285.935 13.8087C278.257 13.6807 270.706 15.5864 264.226 19.2882L263.12 17.7242C268.51 14.6433 274.625 12.7316 280.98 12.1403C287.335 11.549 293.756 12.2944 299.735 14.3175C305.714 16.3406 311.087 19.5859 315.428 23.7966C319.77 28.0072 322.96 33.0677 324.748 38.5775C326.536 44.0873 326.872 49.8953 325.729 55.5418C324.586 61.1884 321.996 66.5185 318.163 71.1104C314.331 75.7024 309.361 79.4301 303.648 81.9986C297.934 84.5671 291.634 85.9059 285.245 85.9091H285.225Z" fill="white"/>
<path d="M285.226 81.9774C277.041 81.9865 269.087 79.5406 262.625 75.0278C256.164 70.5149 251.564 64.1934 249.557 57.0659L251.558 56.6079C253.158 62.2691 256.496 67.413 261.191 71.4543C265.886 75.4956 271.749 78.272 278.114 79.4676C284.479 80.6632 291.09 80.23 297.194 78.2172C303.298 76.2045 308.651 72.693 312.643 68.0824C316.635 63.4718 319.106 57.9472 319.776 52.1372C320.445 46.3272 319.285 40.4652 316.428 35.2181C313.572 29.971 309.132 25.5495 303.616 22.4568C298.1 19.3641 291.728 17.7243 285.226 17.7241C282.726 17.7244 280.233 17.9648 277.79 18.4413L277.357 16.6354C282.404 15.6398 287.629 15.6105 292.689 16.5494C297.75 17.4882 302.534 19.374 306.73 22.0842C310.925 24.7943 314.438 28.2679 317.04 32.2787C319.641 36.2895 321.273 40.7476 321.829 45.3626C322.385 49.9776 321.852 54.646 320.266 59.0638C318.679 63.4816 316.075 67.5497 312.622 71.0031C309.168 74.4566 304.944 77.2179 300.224 79.1072C295.504 80.9966 290.393 81.9716 285.226 81.9688V81.9774Z" fill="white"/>
<path d="M285.225 78.0459C276.633 78.0367 268.395 74.9668 262.32 69.5094C256.244 64.052 252.827 56.6528 252.817 48.9349C252.813 47.8754 252.877 46.8166 253.009 45.7637L255.048 45.9625C254.933 46.9499 254.875 47.942 254.875 48.9349C254.876 54.1645 256.551 59.2837 259.7 63.6823C262.849 68.0808 267.339 71.5733 272.636 73.7434C277.933 75.9134 283.813 76.6696 289.576 75.9218C295.338 75.1739 300.739 72.9536 305.135 69.5254C309.532 66.0972 312.738 61.6058 314.373 56.5864C316.007 51.567 316 46.2314 314.353 41.2154C312.705 36.1995 309.487 31.7148 305.082 28.2959C300.676 24.8769 295.269 22.668 289.505 21.9323L289.794 20.1004C297.908 21.1437 305.281 24.9094 310.429 30.6396C315.576 36.3698 318.116 43.639 317.537 50.9837C316.958 58.3284 313.303 65.2034 307.307 70.2246C301.312 75.2458 293.422 78.0404 285.225 78.0459Z" fill="white"/>
<path d="M285.225 74.1143C277.793 74.1051 270.67 71.4494 265.415 66.7293C260.16 62.0092 257.204 55.6101 257.194 48.9349C257.178 44.9639 258.22 41.0471 260.233 37.5117L262.071 38.3758C259.738 42.4955 258.82 47.1448 259.434 51.7338C260.047 56.3228 262.164 60.6447 265.516 64.1512C268.868 67.6578 273.305 70.1909 278.262 71.4294C283.219 72.6678 288.474 72.5556 293.36 71.1072C298.247 69.6587 302.544 66.9392 305.707 63.2936C308.87 59.6481 310.756 55.2407 311.126 50.6307C311.496 46.0208 310.334 41.4159 307.786 37.4003C305.238 33.3847 301.42 30.1393 296.816 28.0759L297.778 26.4168C303.429 28.9513 307.962 33.1254 310.643 38.2629C313.323 43.4004 313.994 49.2004 312.547 54.7232C311.1 60.246 307.619 65.1682 302.669 68.6923C297.719 72.2164 291.589 74.136 285.273 74.1402L285.225 74.1143Z" fill="white"/>
<path d="M285.225 70.1826C280.455 70.1827 275.796 68.8874 271.861 66.4666C267.925 64.0458 264.896 60.6127 263.171 56.6179C261.446 52.623 261.106 48.2531 262.196 44.0816C263.285 39.9102 265.753 36.132 269.276 33.243L270.661 34.6083C267.532 37.178 265.315 40.5181 264.285 44.2123C263.255 47.9064 263.458 51.7911 264.869 55.3821C266.281 58.9731 268.837 62.1116 272.221 64.4063C275.604 66.701 279.665 68.0504 283.896 68.2863C288.127 68.5221 292.342 67.634 296.016 65.7327C299.689 63.8313 302.658 61.0008 304.553 57.5941C306.447 54.1873 307.184 50.355 306.67 46.5749C306.157 42.7947 304.416 39.2339 301.665 36.3365L303.233 35.1354C306.164 38.2245 308.048 42.0031 308.663 46.0241C309.279 50.0451 308.599 54.1403 306.705 57.8252C304.81 61.5101 301.781 64.6306 297.974 66.8175C294.168 69.0043 289.743 70.1661 285.225 70.1653V70.1826Z" fill="white"/>
<path d="M285.225 66.2425C280.697 66.2844 276.298 64.8908 272.802 62.3068C269.306 59.7227 266.936 56.1139 266.11 52.1153C265.284 48.1166 266.054 43.9843 268.285 40.4455C270.516 36.9066 274.066 34.1879 278.308 32.7678L279.049 34.496C275.895 35.5895 273.17 37.4936 271.214 39.9702C269.259 42.4469 268.159 45.3864 268.052 48.4214C267.945 51.4564 268.836 54.4523 270.614 57.0349C272.392 59.6175 274.978 61.6723 278.048 62.9424C281.119 64.2126 284.538 64.6418 287.878 64.1765C291.219 63.7112 294.333 62.372 296.831 60.3262C299.329 58.2804 301.1 55.6188 301.924 52.6738C302.748 49.7288 302.587 46.6311 301.462 43.7676L303.386 43.1455C304.425 45.7575 304.749 48.5558 304.33 51.3039C303.912 54.0521 302.763 56.6694 300.981 58.9346C299.199 61.1998 296.836 63.0464 294.091 64.3183C291.347 65.5903 288.303 66.2503 285.215 66.2425H285.225Z" fill="white"/>
</g>
<defs>
<linearGradient id="paint0_linear_107_506" x1="2.00028" y1="49.6135" x2="409.547" y2="49.6135" gradientUnits="userSpaceOnUse">
<stop stop-color="#384638"/>
<stop offset="0.5" stop-color="#719078"/>
<stop offset="1" stop-color="#384638"/>
</linearGradient>
<linearGradient id="paint1_linear_107_506" x1="2" y1="49.6135" x2="409.546" y2="49.6135" gradientUnits="userSpaceOnUse">
<stop stop-color="#384638"/>
<stop offset="0.5" stop-color="#719078"/>
<stop offset="1" stop-color="#384638"/>
</linearGradient>
<linearGradient id="paint2_linear_107_506" x1="1.99994" y1="49.6136" x2="409.546" y2="49.6136" gradientUnits="userSpaceOnUse">
<stop stop-color="#384638"/>
<stop offset="0.5" stop-color="#719078"/>
<stop offset="1" stop-color="#384638"/>
</linearGradient>
<linearGradient id="paint3_linear_107_506" x1="2.00064" y1="49.6135" x2="409.547" y2="49.6135" gradientUnits="userSpaceOnUse">
<stop stop-color="#384638"/>
<stop offset="0.5" stop-color="#719078"/>
<stop offset="1" stop-color="#384638"/>
</linearGradient>
<linearGradient id="paint4_linear_107_506" x1="250.297" y1="49.5015" x2="330.045" y2="49.5015" gradientUnits="userSpaceOnUse">
<stop stop-color="#A49375"/>
<stop offset="0.06" stop-color="#B0A182"/>
<stop offset="0.18" stop-color="#D1C4A3"/>
<stop offset="0.25" stop-color="#E5DBB8"/>
<stop offset="0.42" stop-color="#B8A98A"/>
<stop offset="0.5" stop-color="#A59477"/>
<stop offset="0.57" stop-color="#B3A485"/>
<stop offset="0.7" stop-color="#D7CCAA"/>
<stop offset="0.75" stop-color="#E5DBB8"/>
<stop offset="0.92" stop-color="#B7A888"/>
<stop offset="1" stop-color="#A49375"/>
</linearGradient>
<linearGradient id="paint5_linear_107_506" x1="250.296" y1="49.5015" x2="330.044" y2="49.5015" gradientUnits="userSpaceOnUse">
<stop stop-color="#A49375"/>
<stop offset="0.06" stop-color="#B0A182"/>
<stop offset="0.18" stop-color="#D1C4A3"/>
<stop offset="0.25" stop-color="#E5DBB8"/>
<stop offset="0.42" stop-color="#B8A98A"/>
<stop offset="0.5" stop-color="#A59477"/>
<stop offset="0.57" stop-color="#B3A485"/>
<stop offset="0.7" stop-color="#D7CCAA"/>
<stop offset="0.75" stop-color="#E5DBB8"/>
<stop offset="0.92" stop-color="#B7A888"/>
<stop offset="1" stop-color="#A49375"/>
</linearGradient>
<linearGradient id="paint6_linear_107_506" x1="250.295" y1="49.5013" x2="330.043" y2="49.5013" gradientUnits="userSpaceOnUse">
<stop stop-color="#A49375"/>
<stop offset="0.06" stop-color="#B0A182"/>
<stop offset="0.18" stop-color="#D1C4A3"/>
<stop offset="0.25" stop-color="#E5DBB8"/>
<stop offset="0.42" stop-color="#B8A98A"/>
<stop offset="0.5" stop-color="#A59477"/>
<stop offset="0.57" stop-color="#B3A485"/>
<stop offset="0.7" stop-color="#D7CCAA"/>
<stop offset="0.75" stop-color="#E5DBB8"/>
<stop offset="0.92" stop-color="#B7A888"/>
<stop offset="1" stop-color="#A49375"/>
</linearGradient>
<linearGradient id="paint7_linear_107_506" x1="250.295" y1="49.5014" x2="330.043" y2="49.5014" gradientUnits="userSpaceOnUse">
<stop stop-color="#A49375"/>
<stop offset="0.06" stop-color="#B0A182"/>
<stop offset="0.18" stop-color="#D1C4A3"/>
<stop offset="0.25" stop-color="#E5DBB8"/>
<stop offset="0.42" stop-color="#B8A98A"/>
<stop offset="0.5" stop-color="#A59477"/>
<stop offset="0.57" stop-color="#B3A485"/>
<stop offset="0.7" stop-color="#D7CCAA"/>
<stop offset="0.75" stop-color="#E5DBB8"/>
<stop offset="0.92" stop-color="#B7A888"/>
<stop offset="1" stop-color="#A49375"/>
</linearGradient>
<linearGradient id="paint8_linear_107_506" x1="250.297" y1="49.5014" x2="330.045" y2="49.5014" gradientUnits="userSpaceOnUse">
<stop stop-color="#A49375"/>
<stop offset="0.06" stop-color="#B0A182"/>
<stop offset="0.18" stop-color="#D1C4A3"/>
<stop offset="0.25" stop-color="#E5DBB8"/>
<stop offset="0.42" stop-color="#B8A98A"/>
<stop offset="0.5" stop-color="#A59477"/>
<stop offset="0.57" stop-color="#B3A485"/>
<stop offset="0.7" stop-color="#D7CCAA"/>
<stop offset="0.75" stop-color="#E5DBB8"/>
<stop offset="0.92" stop-color="#B7A888"/>
<stop offset="1" stop-color="#A49375"/>
</linearGradient>
<linearGradient id="paint9_linear_107_506" x1="250.296" y1="49.5013" x2="330.044" y2="49.5013" gradientUnits="userSpaceOnUse">
<stop stop-color="#A49375"/>
<stop offset="0.06" stop-color="#B0A182"/>
<stop offset="0.18" stop-color="#D1C4A3"/>
<stop offset="0.25" stop-color="#E5DBB8"/>
<stop offset="0.42" stop-color="#B8A98A"/>
<stop offset="0.5" stop-color="#A59477"/>
<stop offset="0.57" stop-color="#B3A485"/>
<stop offset="0.7" stop-color="#D7CCAA"/>
<stop offset="0.75" stop-color="#E5DBB8"/>
<stop offset="0.92" stop-color="#B7A888"/>
<stop offset="1" stop-color="#A49375"/>
</linearGradient>
<linearGradient id="paint10_linear_107_506" x1="250.296" y1="49.5013" x2="330.044" y2="49.5013" gradientUnits="userSpaceOnUse">
<stop stop-color="#A49375"/>
<stop offset="0.06" stop-color="#B0A182"/>
<stop offset="0.18" stop-color="#D1C4A3"/>
<stop offset="0.25" stop-color="#E5DBB8"/>
<stop offset="0.42" stop-color="#B8A98A"/>
<stop offset="0.5" stop-color="#A59477"/>
<stop offset="0.57" stop-color="#B3A485"/>
<stop offset="0.7" stop-color="#D7CCAA"/>
<stop offset="0.75" stop-color="#E5DBB8"/>
<stop offset="0.92" stop-color="#B7A888"/>
<stop offset="1" stop-color="#A49375"/>
</linearGradient>
<clipPath id="clip0_107_506">
<rect width="408" height="66" fill="white" transform="translate(2)"/>
</clipPath>
<clipPath id="clip1_107_506">
<rect width="410" height="25" fill="white" transform="translate(0 66)"/>
</clipPath>
</defs>
</svg>
